<svg width="46" height="30" viewBox="0 0 46 30" fill="none" xmlns="http://www.w3.org/2000/svg">
<path fill-rule="evenodd" clip-rule="evenodd" d="M45.2212 15.0003C45.2212 15.9208 44.475 16.667 43.5545 16.667L3.55311 16.667C2.63264 16.667 1.88645 15.9208 1.88645 15.0003C1.88645 14.0799 2.63264 13.3337 3.55311 13.3337L43.5545 13.3337C44.475 13.3337 45.2212 14.0799 45.2212 15.0003Z" fill="#CECECE"/>
<path fill-rule="evenodd" clip-rule="evenodd" d="M13.5099 29.6136C12.8028 30.2029 11.7519 30.1074 11.1626 29.4003L0.643893 16.7783C-0.214591 15.7482 -0.214588 14.2518 0.643894 13.2217L11.1626 0.59971C11.7519 -0.107407 12.8028 -0.202927 13.5099 0.38636C14.2171 0.975645 14.3126 2.02658 13.7233 2.7337L3.50098 15L13.7233 27.2663C14.3126 27.9734 14.2171 29.0244 13.5099 29.6136Z" fill="#CECECE"/>
</svg>
