<svg width="28" height="36" viewBox="0 0 28 36" fill="none" xmlns="http://www.w3.org/2000/svg">
<path d="M20.8259 2.46572C16.2443 1.69762 11.5426 1.69762 6.96099 2.46572C4.91971 2.80794 3.29319 4.3748 2.88343 6.40906C1.35781 13.983 1.27457 21.7767 2.63807 29.3815L3.18416 32.4273C3.49305 34.1501 5.59334 34.8387 6.86229 33.6332L13.4539 27.3712C13.7002 27.1371 14.0867 27.1371 14.333 27.3712L20.9246 33.6332C22.1936 34.8387 24.2939 34.1501 24.6027 32.4273L25.1488 29.3815C26.5123 21.7767 26.4291 13.983 24.9035 6.40907C24.4937 4.3748 22.8672 2.80794 20.8259 2.46572Z" stroke="#6C5FBC" stroke-width="3"/>
</svg>
