<svg width="24" height="32" viewBox="0 0 24 32" fill="none" xmlns="http://www.w3.org/2000/svg">
<path d="M18.6606 1.45196C14.1884 0.702212 9.59851 0.702212 5.12633 1.45196C3.49248 1.72587 2.19133 2.98018 1.86374 4.60653C0.362958 12.0572 0.281072 19.724 1.62237 27.205L2.16846 30.2508C2.33685 31.19 3.48179 31.5653 4.17354 30.9082L10.7651 24.6462C11.3974 24.0455 12.3895 24.0455 13.0218 24.6462L19.6134 30.9082C20.3051 31.5653 21.4501 31.19 21.6184 30.2508L22.1645 27.205C23.5058 19.724 23.4239 12.0572 21.9232 4.60653C21.5956 2.98018 20.2944 1.72587 18.6606 1.45196Z" fill="#6C5FBC"/>
</svg>
