<svg width="35" height="35" viewBox="0 0 35 35" fill="none" xmlns="http://www.w3.org/2000/svg">
<g id="Doughnut" clip-path="url(#clip0_1_14605)">
<path id="Vector" d="M17.5283 1.2832C8.51577 1.2832 1.18994 8.58696 1.18994 17.6218C1.18994 26.635 8.49361 33.9604 17.5283 33.9604C26.5414 33.9604 33.8667 26.6567 33.8667 17.6218C33.8667 8.58696 26.5414 1.2832 17.5283 1.2832ZM17.5283 23.0385C14.5315 23.0385 12.0896 20.5965 12.0896 17.5997C12.0896 14.6028 14.5315 12.1608 17.5283 12.1608C20.5252 12.1608 22.9671 14.6028 22.9671 17.5997C22.9671 20.6191 20.5256 23.0385 17.5283 23.0385Z" fill="#EDB66B"/>
<path id="Vector_2" d="M10.1541 22.9485C9.75034 22.9485 9.41042 22.7996 9.15515 22.5447C8.55995 21.9282 8.58122 20.8659 8.62377 19.6121C8.64504 18.5281 8.68759 17.168 8.17748 16.637C8.07112 16.5094 7.85884 16.3609 7.37 16.3396H7.28491C6.75354 16.3396 6.37107 16.446 6.15834 16.6796C5.73333 17.1259 5.79715 18.1248 5.83969 18.9323C5.90351 19.7823 5.94606 20.5264 5.45722 20.9515C5.09603 21.2914 4.6072 21.4616 4.07582 21.4616C3.03434 21.4616 1.80185 20.7392 1.39811 19.8891C1.35601 19.8036 1.33473 19.7398 1.33473 19.6547L1.31346 19.442C1.24964 18.6345 1.16455 17.7419 1.16455 17.3594C1.16455 8.34849 8.49613 1.03809 17.4852 1.03809C26.4743 1.03809 33.8063 8.36976 33.8063 17.3594C33.8063 17.7206 33.7851 18.1031 33.7638 18.4647C33.6787 19.5909 32.7649 20.4622 31.66 20.4622C31.4264 20.4622 31.1712 20.4196 30.9376 20.3345C29.8749 19.9308 28.9823 19.1658 28.1323 18.4217C26.8998 17.3377 25.7306 16.3392 24.0731 16.2966C23.0317 16.2754 22.0965 15.7014 21.6082 14.8089C20.4182 12.5987 20.2693 12.5136 17.2729 12.5136C11.7478 12.5136 11.7478 15.6163 11.7478 16.6366C11.7478 17.2105 11.7903 17.8265 11.8116 18.4217C11.918 20.1644 12.003 21.6942 11.2589 22.4809C11.0254 22.7787 10.6216 22.9485 10.1541 22.9485Z" fill="#86522C"/>
<path id="Vector_3" d="M17.5281 1.73961C26.156 1.73961 33.1689 8.73136 33.1689 17.3806C33.1689 17.7418 33.1477 18.103 33.1264 18.4434C33.0626 19.2083 32.4253 19.7823 31.7241 19.7823C31.5752 19.7823 31.4055 19.761 31.2566 19.6972C28.8763 18.8046 27.3251 15.6806 24.159 15.6172C23.3941 15.5959 22.65 15.1709 22.2888 14.4906C20.9499 11.983 20.5036 11.8341 17.3371 11.8341C13.8093 11.8341 11.1104 13.0241 11.1104 16.637C11.1104 19.2296 11.7694 22.2473 10.1752 22.2473C8.07145 22.2473 10.9827 15.7444 7.41287 15.6593H7.30651C3.84259 15.6593 5.75537 19.7823 5.03298 20.4621C4.77771 20.6961 4.45906 20.7808 4.11913 20.7808C3.26911 20.7808 2.33399 20.1856 2.07872 19.6121C2.03617 19.1658 1.92981 17.8269 1.92981 17.3806C1.88726 8.73136 8.9002 1.73961 17.5281 1.73961ZM17.5281 0.336914C8.13526 0.336914 0.505859 7.96641 0.505859 17.3594C0.505859 17.7631 0.590951 18.677 0.654769 19.5057L0.676042 19.718C0.697315 19.8882 0.73986 20.0579 0.803679 20.2069C1.33506 21.3117 2.78028 22.1622 4.09786 22.1622C4.79898 22.1622 5.43672 21.9282 5.94682 21.4819C6.69049 20.8233 6.62667 19.8457 6.56285 18.8893C6.54158 18.4004 6.45648 17.4015 6.69049 17.1679C6.73303 17.1254 6.92404 17.0403 7.30651 17.0403H7.37033C7.43415 17.0403 7.62516 17.0403 7.68898 17.1041C8.00763 17.4227 7.96508 18.8254 7.94381 19.5904C7.90126 20.9293 7.87999 22.2043 8.6662 23.0118C9.04867 23.4155 9.58004 23.6283 10.1752 23.6283C10.8343 23.6283 11.4077 23.3943 11.8327 22.9271C12.7679 21.9282 12.6828 20.2707 12.5764 18.3579C12.5339 17.7839 12.5126 17.1679 12.5126 16.6152C12.5126 15.595 12.5126 13.1938 17.3366 13.1938C20.0356 13.1938 20.0356 13.1938 21.0554 15.1279C21.6506 16.2541 22.8405 16.9556 24.1156 16.9769C25.5182 16.9982 26.5385 17.8903 27.7284 18.9318C28.6423 19.718 29.5774 20.5472 30.746 20.9722C31.0434 21.0786 31.3838 21.1424 31.7024 21.1424C33.1689 21.1424 34.4014 19.9946 34.4861 18.5072C34.5073 18.1248 34.5286 17.721 34.5286 17.3385C34.5508 7.98769 26.9214 0.336914 17.5281 0.336914Z" fill="#4C2F1B"/>
<path id="Vector_4" d="M19.8738 32.6762C19.9922 32.9856 20.4779 33.0871 20.9588 32.9027C21.4396 32.7188 21.7334 32.319 21.6151 32.0097C21.4968 31.7003 21.0111 31.5993 20.5302 31.7832C20.0493 31.9676 19.7555 32.3673 19.8738 32.6762Z" fill="#E3A358"/>
<path id="Vector_5" d="M28.831 26.9525C29.038 27.4931 29.5414 27.8734 30.1517 27.9501C30.762 28.0263 31.386 27.7874 31.7892 27.3234C32.1925 26.8589 32.3135 26.2398 32.1066 25.6991C31.8996 25.158 31.3961 24.7782 30.7859 24.7015C30.1756 24.6253 29.5512 24.8641 29.1479 25.3282C28.7446 25.7926 28.624 26.4118 28.831 26.9525Z" fill="#E3A358"/>
<path id="Vector_6" d="M13.3626 33.6976C13.5696 34.2383 14.0731 34.6185 14.6833 34.6952C15.2936 34.7714 15.918 34.5325 16.3213 34.0685C16.7246 33.6041 16.8456 32.9849 16.6386 32.4442C16.4317 31.9035 15.9282 31.5233 15.318 31.4466C14.7077 31.3704 14.0832 31.6093 13.6799 32.0733C13.2766 32.5377 13.1557 33.1569 13.3626 33.6976Z" fill="#E3A358"/>
<path id="Vector_7" d="M9.95763 31.1998C10.2825 31.2733 10.6078 31.2304 10.8116 31.0863C11.0151 30.9423 11.0656 30.7198 10.9442 30.5018C10.8227 30.2841 10.5479 30.1042 10.2231 30.0306C9.89824 29.9566 9.57294 30.0001 9.36908 30.1441C9.16566 30.2881 9.11513 30.5106 9.23657 30.7282C9.35756 30.9463 9.63277 31.1258 9.95763 31.1998Z" fill="#E3A358"/>
<path id="Vector_8" d="M16.9117 24.6018C17.1824 24.6635 17.4466 24.6586 17.6048 24.5886C17.763 24.5185 17.7909 24.3949 17.6788 24.2637C17.5662 24.1325 17.33 24.0137 17.0592 23.9521C16.7885 23.8905 16.5243 23.8954 16.3661 23.9654C16.2079 24.0354 16.18 24.1591 16.2921 24.2903C16.4047 24.4219 16.6409 24.5402 16.9117 24.6018Z" fill="#E3A358"/>
<path id="Vector_9" d="M4.6833 26.1244C4.89248 26.1718 5.10211 26.1413 5.23418 26.0446C5.36624 25.9476 5.39948 25.7991 5.32281 25.6551C5.2457 25.5106 5.06975 25.3927 4.86102 25.3453C4.65183 25.2979 4.44221 25.328 4.31058 25.4251C4.17851 25.5217 4.14483 25.6706 4.22194 25.8146C4.29817 25.9587 4.47456 26.077 4.6833 26.1244Z" fill="#E3A358"/>
<path id="Vector_10" d="M13.1033 23.037C13.379 23.224 13.6715 23.341 13.8709 23.3437C14.0704 23.3463 14.1466 23.2342 14.0704 23.0498C13.9946 22.865 13.7779 22.6363 13.5022 22.4493C13.2265 22.2623 12.934 22.1453 12.7342 22.1426C12.5347 22.14 12.4589 22.2521 12.5347 22.4365C12.611 22.6213 12.8277 22.85 13.1033 23.037Z" fill="#E3A358"/>
<path id="Vector_11" d="M17.5292 34.9057C7.99812 34.9057 0.244629 27.1521 0.244629 17.6217C0.244629 8.09051 7.99812 0.336914 17.5292 0.336914C27.0599 0.336914 34.8134 8.09051 34.8134 17.6217C34.8134 27.1521 27.0594 34.9057 17.5292 34.9057ZM17.5292 2.22845C9.05379 2.22845 2.15874 9.12403 2.15874 17.5991C2.15874 26.0742 9.05423 32.9698 17.5292 32.9698C26.0042 32.9698 32.8997 26.0747 32.8997 17.5991C32.8997 9.12358 26.0042 2.22845 17.5292 2.22845ZM17.5292 24.0059C14.0086 24.0059 11.1447 21.142 11.1447 17.6217C11.1447 14.0891 14.0086 11.215 17.5292 11.215C21.0494 11.215 23.9133 14.0789 23.9133 17.5996C23.9133 21.1318 21.0494 24.0059 17.5292 24.0059ZM17.5292 13.1282C15.0638 13.1282 13.0584 15.1341 13.0584 17.5991C13.0584 20.0641 15.0642 22.07 17.5292 22.07C19.9942 22.07 22.0001 20.0641 22.0001 17.5991C21.9996 15.1341 19.9942 13.1282 17.5292 13.1282Z" fill="#4C2F1B"/>
<path id="Vector_12" d="M18.4611 8.6978L14.7317 6.23367C14.5762 6.14459 14.554 5.94515 14.6426 5.78959L15.0645 5.16824C15.1532 5.01268 15.3531 4.99052 15.5086 5.07916L19.238 7.54329C19.3936 7.63237 19.4157 7.83225 19.3266 7.98737L18.9047 8.60916C18.8165 8.76428 18.6167 8.78644 18.4611 8.6978Z" fill="#DB79AD"/>
<path id="Vector_13" d="M3.65434 12.6042L4.63112 10.4733C4.6976 10.3178 4.89747 10.2513 5.05303 10.3178L5.74129 10.6284C5.89685 10.6949 5.96333 10.8948 5.89685 11.0504L4.92008 13.1812C4.85315 13.3368 4.65372 13.4032 4.49816 13.3368L3.8099 13.0261C3.65434 12.937 3.56571 12.7597 3.65434 12.6042ZM27.8956 12.4265L26.0307 10.9834C25.8977 10.8726 25.8751 10.6728 25.9642 10.5394L26.4304 9.94017C26.5412 9.80721 26.7411 9.78461 26.8745 9.87369L28.7394 11.3167C28.8724 11.4279 28.895 11.6274 28.8059 11.7608L28.3397 12.3604C28.2289 12.5155 28.029 12.5373 27.8956 12.4265Z" fill="#F6B173"/>
<path id="Vector_14" d="M23.2114 9.40767L21.9239 6.49946C21.8575 6.3439 21.9239 6.14403 22.0795 6.07755L22.7673 5.76687C22.9229 5.70039 23.1227 5.76687 23.1892 5.92243L24.4767 8.83064C24.5431 8.9862 24.4767 9.18563 24.3211 9.25255L23.6328 9.56323C23.4782 9.62971 23.3005 9.56279 23.2114 9.40767ZM8.91516 14.8243L7.62771 11.9161C7.56123 11.7606 7.62771 11.5611 7.78327 11.4942L8.47153 11.1835C8.62709 11.1171 8.82652 11.1835 8.89344 11.3391L10.1809 14.2473C10.2474 14.4029 10.1809 14.6027 10.0253 14.6692L9.33707 14.9799C9.1598 15.0685 8.98208 14.9799 8.91516 14.8243Z" fill="#F7E774"/>
<path id="Vector_15" d="M9.51541 8.80848L10.8476 5.92243C10.9141 5.76687 11.114 5.70039 11.2695 5.76687L11.9578 6.07755C12.1133 6.14403 12.1798 6.3439 12.1133 6.49946L10.7811 9.38551C10.7147 9.54107 10.5148 9.60755 10.3592 9.54107L9.67096 9.2304C9.51541 9.16392 9.44893 8.9862 9.51541 8.80848ZM29.561 16.0458L30.0051 12.8934C30.0273 12.7156 30.1828 12.6048 30.3605 12.627L31.1153 12.7378C31.293 12.76 31.4038 12.9155 31.3816 13.0928L30.9376 16.2452C30.9154 16.4225 30.7599 16.5337 30.5826 16.5115L29.8278 16.4008C29.6497 16.3786 29.5389 16.2235 29.561 16.0458Z" fill="#EC6A69"/>
<path id="Vector_16" d="M7.8632 26.9096C8.01831 26.9894 8.19071 27.0062 8.31569 26.9544C8.44022 26.9025 8.49828 26.7895 8.4677 26.6579C8.43712 26.5262 8.32233 26.3964 8.16722 26.3166C8.01211 26.2368 7.83971 26.22 7.71473 26.2719C7.5902 26.3237 7.53214 26.4367 7.56272 26.5684C7.5933 26.6995 7.70764 26.8298 7.8632 26.9096Z" fill="#E3A358"/>
<path id="Vector_17" d="M24.1871 27.689C24.2265 27.7927 24.39 27.8401 24.6147 27.8131C24.8399 27.7865 25.0929 27.6894 25.2782 27.5591C25.4634 27.4288 25.5534 27.2843 25.5139 27.1806C25.4741 27.0769 25.311 27.0295 25.0858 27.0561C24.8607 27.0827 24.6076 27.1793 24.4224 27.31C24.2371 27.4408 24.1472 27.5853 24.1871 27.689Z" fill="#E3A358"/>
<path id="Vector_18" d="M14.2217 26.5245C14.4322 26.6801 14.6821 26.7488 14.8771 26.7049C15.0721 26.661 15.1829 26.5113 15.167 26.3118C15.1515 26.1128 15.0123 25.8939 14.8018 25.7383C14.5913 25.5828 14.3413 25.5141 14.1463 25.5579C13.9513 25.6018 13.8405 25.7516 13.8565 25.9511C13.8716 26.1509 14.0112 26.3694 14.2217 26.5245Z" fill="#E3A358"/>
<path id="Vector_19" d="M20.4416 29.504C20.4668 29.6861 20.7137 29.8022 20.9929 29.7637C21.2725 29.7251 21.4782 29.5461 21.4529 29.3639C21.4276 29.1818 21.1808 29.0652 20.9016 29.1042C20.6219 29.1428 20.4163 29.3218 20.4416 29.504Z" fill="#E3A358"/>
</g>
<defs>
<clipPath id="clip0_1_14605">
<rect width="34.5688" height="34.5688" fill="white" transform="translate(0.244629 0.336914)"/>
</clipPath>
</defs>
</svg>
