<svg width="52" height="51" viewBox="0 0 52 51" fill="none" xmlns="http://www.w3.org/2000/svg">
<g id="Hotdog" clip-path="url(#clip0_1_14628)">
<path id="Vector" d="M27.0583 26.3561C20.8859 32.135 13.4933 33.3824 12.672 33.5065C11.4074 33.694 10.1434 33.3853 9.11565 32.6241C8.08753 31.8626 7.41217 30.7484 7.22579 29.4841C6.99111 27.9271 7.53962 26.3494 8.69093 25.2715C9.39841 24.6091 10.2766 24.1846 11.238 24.0338C11.4402 24.0016 16.414 23.1678 20.4394 19.399C22.8101 17.1795 24.379 14.3763 25.1017 11.0691C25.3115 10.1155 25.7931 9.25964 26.5048 8.59333C27.6561 7.51541 29.2629 7.06802 30.801 7.40462C32.0507 7.67344 33.1177 8.42095 33.81 9.49694C34.5022 10.5729 34.7307 11.8583 34.4565 13.1043C33.3082 18.3763 30.8204 22.8338 27.0583 26.3561Z" fill="#F4A360"/>
<path id="Vector_2" d="M27.824 27.175C21.6436 32.9614 14.2574 34.3942 12.8393 34.6229C11.2804 34.8558 9.71987 34.4679 8.4487 33.5297C7.17521 32.5897 6.34559 31.2131 6.11408 29.6525C5.824 27.73 6.50053 25.7866 7.92425 24.4536C8.7951 23.6383 9.87485 23.1072 11.0468 22.9177C11.0853 22.9132 15.8533 22.1426 19.6655 18.5734C21.8637 16.5154 23.3208 13.9076 23.996 10.8223C24.253 9.64572 24.853 8.58963 25.7312 7.76741C27.155 6.43445 29.1387 5.88723 31.0372 6.30312C32.5824 6.64232 33.9025 7.5604 34.7528 8.88808C35.6054 10.2182 35.8898 11.8009 35.5537 13.3441C34.3547 18.8423 31.7541 23.4955 27.824 27.175ZM9.45672 26.0904C8.57956 26.9117 8.15793 28.1169 8.32854 29.3145C8.62623 31.314 10.496 32.6955 12.4969 32.3957C12.8085 32.3498 20.2222 31.2134 26.2841 25.538C29.8702 22.1805 32.2489 17.9177 33.3538 12.8685C33.5643 11.9135 33.3895 10.9328 32.8614 10.1087C32.3326 9.28392 31.5134 8.7146 30.5551 8.50619C29.3774 8.25024 28.1481 8.59001 27.266 9.41585C26.7202 9.92691 26.3482 10.5815 26.1904 11.3089C25.4179 14.8454 23.7393 17.8441 21.2007 20.2208C17.0438 24.1127 11.9649 25.0515 11.3993 25.1459C10.6726 25.2557 9.99942 25.5823 9.45672 26.0904Z" fill="#4C2F1B"/>
<path id="Vector_3" d="M30.7133 29.6269C25.2803 34.7136 18.2655 37.1887 13.5082 37.8126C12.2402 37.9803 10.985 37.6417 9.96909 36.8615C8.9535 36.0811 8.30566 34.9562 8.14263 33.6845C7.94557 32.16 8.49665 30.6174 9.62027 29.5654C10.3519 28.8803 11.2651 28.4454 12.2608 28.3151C12.3387 28.302 14.319 28.0294 16.8919 27.0673C19.7705 25.9911 22.2249 24.5181 24.1836 22.6843C27.022 20.0269 28.73 16.6583 29.2541 12.6753C29.399 11.58 29.9212 10.5587 30.7286 9.8028C31.78 8.81843 33.205 8.36106 34.6317 8.54699C35.8964 8.71169 37.0288 9.36046 37.8083 10.3771C38.5878 11.3938 38.9216 12.6476 38.759 13.9166C37.9365 20.1141 35.2306 25.3977 30.7133 29.6269Z" fill="#FF6C4A"/>
<path id="Vector_4" d="M31.4875 30.4545C25.8659 35.7177 18.591 38.2839 13.6573 38.9309C12.0889 39.1347 10.5361 38.7172 9.28481 37.7544C8.03711 36.7949 7.23624 35.4013 7.02917 33.8309C6.78221 31.9496 7.46478 30.0491 8.85449 28.748C9.75935 27.9009 10.8847 27.3665 12.1088 27.2025C12.1252 27.2003 14.0214 26.942 16.5007 26.0182C19.2427 24.993 21.57 23.5963 23.4175 21.8666C26.0581 19.3943 27.6461 16.2538 28.1371 12.5319C28.3113 11.1791 28.9579 9.91835 29.9588 8.98125C31.2609 7.76219 33.0179 7.20115 34.7786 7.44241C36.3406 7.64428 37.7321 8.44682 38.6993 9.70189C39.6635 10.9531 40.0797 12.5058 39.8722 14.0732C39.0198 20.5319 36.199 26.0433 31.4875 30.4545ZM10.3902 30.3883C9.53025 31.1935 9.10649 32.3711 9.25603 33.5385C9.51651 35.5439 11.3592 36.9619 13.3633 36.7006C17.9469 36.1006 24.7105 33.7127 29.9475 28.8096C34.2709 24.7618 36.8586 19.702 37.6384 13.77C37.7662 12.8005 37.5092 11.8388 36.9139 11.0632C36.318 10.2861 35.455 9.78806 34.4828 9.66105C33.3864 9.52016 32.2974 9.87059 31.4946 10.6222C30.8758 11.2016 30.4751 11.9836 30.3665 12.8247C29.8094 17.0719 27.9879 20.6657 24.9529 23.5072C22.8862 25.4421 20.3069 26.9947 17.286 28.1219C14.5285 29.1497 12.4346 29.4267 12.4138 29.4291C11.6521 29.5304 10.9522 29.8622 10.3902 30.3883Z" fill="#4C2F1B"/>
<path id="Vector_5" d="M19.5807 31.6859C18.7095 32.5015 17.6082 31.9584 16.8763 31.6018C16.1105 31.2244 15.7089 31.0758 15.521 31.2518C15.0653 31.6785 14.3535 31.6553 13.9272 31.2C13.5008 30.7446 13.5246 30.0329 13.9804 29.6062C15.3115 28.3599 16.9094 29.1053 17.809 29.5448C17.7009 28.7245 17.5955 27.4658 18.575 26.5487C19.5623 25.6244 20.8428 25.7822 21.6917 25.8794C21.8459 25.9 22.0502 25.9256 22.2088 25.9349C22.2323 25.6881 22.2219 25.308 22.2149 25.0602C22.1901 24.1764 22.1655 23.1727 22.8453 22.5363C23.5527 21.8739 24.6496 21.971 25.6186 22.0609C25.7344 22.0721 25.8654 22.0842 26.001 22.0926C25.9978 22.0654 25.9947 22.0459 25.9877 22.0222C25.8569 21.1778 25.664 19.8973 26.5751 19.0442C27.2907 18.3743 28.3251 18.4771 29.2358 18.577C29.3249 18.5836 29.4328 18.595 29.5408 18.6063C29.5332 18.5982 29.5338 18.5904 29.5299 18.5862C29.0923 17.6544 28.2784 15.9278 29.5977 14.6927C30.0535 14.266 30.7652 14.2891 31.1915 14.7444C31.6179 15.1998 31.5941 15.9115 31.1384 16.3382C31.0652 16.5566 31.4051 17.2802 31.5719 17.6262C31.9551 18.4361 32.4797 19.5494 31.6043 20.369C30.9045 21.0242 29.8935 20.9217 29.0017 20.8265C28.751 20.799 28.3614 20.7595 28.1285 20.7673C28.1091 21.003 28.1758 21.4348 28.2138 21.6918C28.3315 22.4506 28.4617 23.3106 27.8142 23.9169C27.2105 24.4821 26.3383 24.3994 25.4116 24.3153C25.1414 24.2909 24.7394 24.2544 24.4685 24.2616C24.4532 24.4856 24.466 24.7957 24.4704 25.0092C24.4973 25.943 24.5201 27.001 23.7923 27.6824C23.0967 28.3336 22.1668 28.2222 21.4148 28.1316C20.8824 28.0681 20.331 27.9999 20.1112 28.2057C19.9352 28.3705 19.9789 28.8015 20.0559 29.3966C20.1575 30.0744 20.2844 31.0271 19.5807 31.6859Z" fill="#F9AF38"/>
<path id="Vector_6" d="M33.8661 33.8118C28.1214 39.1902 21.4678 41.1622 20.1289 41.3667C18.8637 41.5542 17.7116 41.3734 16.8001 40.8405C15.7594 40.2334 15.0777 39.1849 14.8846 37.8895C14.6499 36.3325 15.1984 34.7548 16.3497 33.6769C17.0572 33.0145 17.9351 32.5896 18.8969 32.4385C19.099 32.4063 24.0728 31.5725 28.0986 27.8034C30.4692 25.5838 32.0381 22.7806 32.7609 19.4735C32.971 18.5202 33.4526 17.6644 34.1643 16.998C35.316 15.9198 36.9221 15.4724 38.4602 15.809C39.7331 16.0864 40.722 16.7498 41.3169 17.7218C41.8933 18.6663 42.0554 19.8331 41.7775 21.0983C40.4884 26.9668 37.2159 30.6755 33.8661 33.8118Z" fill="#F4A360"/>
<path id="Vector_7" d="M34.6319 34.6379C27.8516 40.9859 20.3557 42.4694 20.2809 42.4836C18.7697 42.7113 17.3639 42.4809 16.226 41.8143C14.8822 41.0248 14.0081 39.6906 13.7651 38.0573C13.475 36.1348 14.1515 34.1914 15.5752 32.8584C16.4499 32.0395 17.5316 31.5112 18.7029 31.3308C18.7452 31.3254 23.5388 30.5288 27.3234 26.9856C29.5216 24.9275 30.9783 22.32 31.6539 19.2345C31.9112 18.0582 32.5106 17.0021 33.3888 16.1799C34.8125 14.8469 36.7962 14.2997 38.6948 14.7156C40.2745 15.0586 41.5106 15.8969 42.269 17.1398C43.0016 18.3403 43.2088 19.7935 42.8688 21.3423C41.5249 27.508 38.1157 31.3762 34.6319 34.6379ZM17.1117 34.4988C16.2335 35.321 15.8104 36.5275 15.98 37.7261C16.2624 39.6137 17.7835 40.5835 19.9499 40.2595C20.0148 40.2494 26.8792 38.8103 33.088 32.9973C36.3043 29.9861 39.448 26.4322 40.667 20.8633C40.8868 19.8641 40.766 18.965 40.3166 18.2643C39.8817 17.5862 39.1539 17.1201 38.2104 16.9149C37.0323 16.6593 35.803 16.999 34.9213 17.8245C34.3758 18.3353 34.0038 18.9898 33.8457 19.7176C33.0732 23.2541 31.3942 26.2531 28.856 28.6295C24.6959 32.5243 19.6198 33.4605 19.0546 33.5546C18.3275 33.6641 17.654 33.991 17.1117 34.4988Z" fill="#4C2F1B"/>
<path id="Vector_8" d="M24.8597 37.3496C24.7437 37.4583 24.5827 37.5189 24.4133 37.4981C24.105 37.4647 23.8813 37.1864 23.9189 36.8738C24.1004 35.2723 22.7991 34.4516 22.7459 34.4193C22.48 34.2555 22.3987 33.9122 22.5588 33.6427C22.7226 33.377 23.0627 33.2912 23.3318 33.4507C23.4154 33.5 25.309 34.6653 25.0412 36.9996C25.0178 37.1418 24.9555 37.26 24.8597 37.3496ZM32.5401 32.1078C32.4683 32.1751 32.3777 32.2224 32.2759 32.25C31.9714 32.3175 31.6721 32.1258 31.6052 31.8217C31.2523 30.2031 29.8469 30.0722 29.8355 30.0678C29.5266 30.0421 29.2955 29.7714 29.3215 29.4625C29.3471 29.1533 29.6183 28.9223 29.9272 28.948C30.6994 29.0118 32.2821 29.6439 32.7052 31.5786C32.7485 31.7773 32.68 31.9768 32.5401 32.1078Z" fill="#4C2F1B"/>
<path id="Vector_9" d="M38.3708 24.5053C38.3066 24.5654 38.2277 24.609 38.1415 24.6371C37.8408 24.7241 37.5329 24.5477 37.4458 24.2467C37.0372 22.8006 35.4749 22.831 35.4093 22.8326C35.0994 22.8381 34.84 22.6012 34.8269 22.2907C34.8139 21.9808 35.0589 21.7212 35.3691 21.7082C36.238 21.6742 38.0131 22.0959 38.5323 23.9406C38.5877 24.1517 38.5187 24.3668 38.3708 24.5053Z" fill="#4C2F1B"/>
<path id="Vector_10" d="M39.6893 9.2462C39.5855 9.34336 39.4552 9.41282 39.3148 9.44698L37.9253 9.77373C37.4995 9.87198 37.0704 9.62234 36.9489 9.20372L36.5638 7.87043C36.477 7.56976 36.5649 7.25474 36.7928 7.04139C37.0568 6.79423 37.4456 6.74505 37.7572 6.92531L39.5324 7.93187C39.7607 8.06325 39.9118 8.28857 39.9455 8.54947C39.975 8.8065 39.8811 9.06666 39.6893 9.2462Z" fill="#FF6C4A"/>
<path id="Vector_11" d="M37.1741 7.44895C37.2502 7.37772 37.3669 7.3506 37.4772 7.41226L39.2522 8.41847C39.4155 8.51276 39.4241 8.72224 39.3042 8.8345C39.2723 8.86437 39.2328 8.88618 39.1862 8.90029L37.7967 9.22704C37.6602 9.25759 37.5273 9.17957 37.4888 9.05063L37.1036 7.70952C37.0757 7.60809 37.1061 7.51262 37.1741 7.44895ZM36.4038 6.62616C36.0199 6.98557 35.8744 7.51881 36.0162 8.02299L36.4016 9.35595C36.6066 10.0632 37.3319 10.4859 38.0501 10.3156L39.4396 9.98885C39.6775 9.93103 39.8946 9.81785 40.0706 9.65308C40.3907 9.35341 40.5526 8.90935 40.4971 8.47419C40.4456 8.04256 40.1836 7.65096 39.8036 7.43688L38.0283 6.43032C37.5043 6.13481 36.8476 6.21062 36.4038 6.62616Z" fill="#4C2F1B"/>
<path id="Vector_12" d="M7.81339 36.9466C7.62162 37.1261 7.35585 37.2027 7.09773 37.1519C6.83996 37.1007 6.62867 36.939 6.50864 36.6991L5.62104 34.8614C5.46551 34.5351 5.53631 34.1539 5.80415 33.9032C6.03203 33.6898 6.35183 33.6224 6.64647 33.7291L7.95154 34.2012C8.36058 34.3499 8.58245 34.7949 8.45608 35.213L8.03864 36.5779C7.99505 36.7239 7.91751 36.8491 7.81339 36.9466Z" fill="#FF6C4A"/>
<path id="Vector_13" d="M6.1892 34.3225C6.25721 34.2588 6.35086 34.231 6.4542 34.269L7.75891 34.7413C7.88505 34.7882 7.95776 34.9298 7.91469 35.0602L7.49725 36.4251C7.48043 36.4711 7.45574 36.5087 7.42384 36.5386C7.30394 36.6508 7.09547 36.6284 7.01213 36.4593L6.12453 34.6217C6.07804 34.5088 6.11312 34.3937 6.1892 34.3225ZM5.41886 33.4997C4.97503 33.9153 4.84871 34.566 5.11665 35.1164L6.00424 36.954C6.19647 37.3511 6.56638 37.6345 6.99369 37.7143C7.42879 37.7946 7.87835 37.6656 8.19808 37.3662C8.37407 37.2015 8.50512 36.9894 8.57463 36.7587L8.99207 35.3937C9.20888 34.6879 8.83557 33.9364 8.13876 33.6889L6.83404 33.2166C6.3444 33.0302 5.80275 33.1403 5.41886 33.4997Z" fill="#4C2F1B"/>
</g>
<defs>
<clipPath id="clip0_1_14628">
<rect width="44.9726" height="25.6986" fill="white" transform="translate(0.611328 31.2861) rotate(-43.1142)"/>
</clipPath>
</defs>
</svg>
