<svg width="23" height="42" viewBox="0 0 23 42" fill="none" xmlns="http://www.w3.org/2000/svg">
<g id="Icecream" clip-path="url(#clip0_1_14583)">
<path id="Vector" d="M4.89365 16.5163C4.89365 16.5163 2.21761 11.7037 8.30721 8.79233C14.3973 5.88099 13.1976 2.89934 13.1517 1.06836C13.1517 1.06836 18.2725 2.85263 18.2725 8.18185C18.2725 14.356 4.89365 16.5163 4.89365 16.5163Z" fill="white"/>
<path id="Vector_2" d="M14.4894 3.08785C14.4894 3.08785 15.8272 7.97123 13.2207 9.77863C10.6142 11.5865 6.85391 12.1262 5.47021 14.2629C5.47021 14.2629 7.43101 15.2725 10.5451 14.4742C13.6592 13.676 18.2724 8.93366 18.2724 8.93366C18.2724 8.93366 20.2564 1.37388 14.4894 3.08785Z" fill="#5A85FF"/>
<path id="Vector_3" d="M14.5355 3.22793C14.5355 3.22793 16.9807 6.35063 16.4041 8.43968C15.8274 10.5292 13.2209 11.8908 12.8288 11.9846C12.4366 12.0785 6.80823 13.2995 5.49316 14.2619C5.49316 14.2619 11.675 14.2147 13.4054 13.2523C15.1585 12.2899 18.9184 9.75407 18.065 7.73532C17.2116 5.71656 16.4273 2.21833 14.5355 3.22793Z" fill="#507BE1"/>
<path id="Vector_4" d="M5.10927 17.5141C5.01791 17.4951 4.95731 17.4951 4.89358 17.4951C4.54732 17.4951 4.22914 17.3087 4.06336 17.0084C3.86104 16.6134 2.90471 14.5661 3.62129 12.2947C4.2024 10.4741 5.65071 8.99827 7.92479 7.90929C12.6414 5.67873 12.4507 3.68039 12.2822 1.91744C12.259 1.61265 12.2359 1.35322 12.2127 1.09379C12.2136 0.795806 12.3597 0.490566 12.6048 0.298714C12.7684 0.180337 12.972 0.112305 13.1721 0.112305C13.2795 0.112305 13.3843 0.131354 13.4832 0.168999C14.4707 0.551342 19.2568 2.6862 19.2568 8.22905C19.2568 15.0568 6.13779 17.3454 5.10927 17.5141ZM14.2515 3.1715C14.173 5.02335 13.4761 7.43579 8.73763 9.67633C6.96355 10.5304 5.85838 11.6057 5.45151 12.8734C5.17656 13.7633 5.2844 14.6246 5.42344 15.191L5.4787 15.416L5.70196 15.3702C6.89047 15.1253 17.3116 12.8435 17.3116 8.18324C17.3116 5.53677 15.8535 3.89673 14.6303 2.98645L14.2706 2.71886L14.2515 3.1715Z" fill="#4C2F1B"/>
<path id="Vector_5" d="M2.51714 23.2306C2.51714 23.2306 -0.50471 18.0184 5.95432 15.4364C12.0903 12.9713 13.5203 15.3892 17.9263 9.77832C18.5493 10.9285 20.7864 14.1215 17.6727 18.1359C16.3113 19.897 5.72348 23.3245 2.51714 23.2306Z" fill="white"/>
<path id="Vector_6" d="M17.6959 11.3281C17.6959 11.3281 18.6651 16.1176 10.1762 16.7984C4.5015 17.2447 2.42529 21.7054 2.42529 21.7054L15.5042 19.3809L19.2872 15.601L17.6959 11.3281Z" fill="#FF5C68"/>
<path id="Vector_7" d="M8.35348 40.3221C7.77683 40.3221 7.26925 39.8994 7.177 39.3125L5.88511 31.4947C5.81604 31.1427 5.93146 30.7672 6.16229 30.5086C6.39269 30.227 6.71577 30.0859 7.08476 30.0859H14.997C15.3428 30.0859 15.6891 30.2501 15.9195 30.5086C16.1503 30.7908 16.2426 31.1427 16.1967 31.4947L14.9048 39.3125C14.8125 39.8994 14.3049 40.3221 13.7283 40.3221H8.35348Z" fill="#FFCD8A"/>
<path id="Vector_8" d="M8.35344 41.3001C7.29818 41.3001 6.37794 40.5095 6.21306 39.4618L4.92072 31.6417C4.81555 30.9777 4.9889 30.3223 5.39621 29.8456C5.82268 29.3467 6.42964 29.0605 7.06155 29.0605H14.9738C15.6061 29.0605 16.2131 29.3467 16.6391 29.8456C17.0455 30.3423 17.2202 30.9981 17.1146 31.6422L15.8227 39.4596C15.6342 40.5245 14.7336 41.2996 13.6819 41.2996H8.35344V41.3001ZM8.15157 39.3199H13.8833L15.2554 31.0172H6.77946L8.15157 39.3199Z" fill="#4C2F1B"/>
<path id="Vector_9" d="M17.3065 33.4478L11.1014 33.793H10.9562L4.75115 33.4474C4.14509 33.4229 3.61166 32.9539 3.51496 32.3371L2.47307 26.787C2.32779 25.9484 2.95792 25.1592 3.7819 25.1592H18.2762C19.1247 25.1592 19.7548 25.9484 19.585 26.787L18.5431 32.3375C18.4214 32.9544 17.9125 33.3984 17.3065 33.4478Z" fill="#FFCD8A"/>
<path id="Vector_10" d="M1.36426 28.4217L1.92531 27.6181L11.8344 34.7855L11.2734 35.5892L1.36426 28.4217ZM4.61695 27.7138L5.178 26.9101L15.0867 34.0775L14.5256 34.8812L4.61695 27.7138ZM8.33577 27.1128L8.89727 26.3091L18.806 33.4766L18.2449 34.2803L8.33577 27.1128ZM10.9173 25.5381L11.4784 24.7344L20.0711 30.9498L19.5096 31.7535L10.9173 25.5381Z" fill="#FFBB71"/>
<path id="Vector_11" d="M9.61264 34.7991L19.5227 27.633L20.0837 28.4372L10.1737 35.6033L9.61264 34.7991ZM6.37154 34.0675L18.6318 25.2015L19.1929 26.0057L6.93259 34.8712L6.37154 34.0675ZM2.61706 33.4825L12.5266 26.3164L13.0877 27.12L3.17812 34.2862L2.61706 33.4825ZM1.36572 30.9616L9.95934 24.7471L10.5204 25.5512L1.92678 31.7658L1.36572 30.9616Z" fill="#FFBB71"/>
<path id="Vector_12" d="M10.7993 35.76L4.9071 35.432C3.33223 35.3663 2.02028 34.2011 1.71413 32.5992L0.722594 27.3176C0.53008 26.317 0.798352 25.2684 1.45789 24.4407C2.13214 23.6216 3.07465 23.1689 4.10986 23.1689H17.9277C18.9526 23.1689 19.9165 23.642 20.5052 24.4344C21.1759 25.2272 21.4419 26.274 21.2454 27.3176L20.2534 32.6001C19.9517 34.1793 18.6389 35.3441 17.0605 35.432L11.1616 35.76H10.7993ZM4.13259 25.1251C3.69498 25.1251 3.27965 25.3247 2.99221 25.6735C2.69676 26.0322 2.57287 26.5007 2.65219 26.9593L3.64507 32.2445C3.75246 32.928 4.35541 33.47 5.04614 33.4981L10.9477 33.8265L11.0992 33.8269L17.0177 33.4977C17.7089 33.4414 18.281 32.9271 18.4147 32.2463L19.4067 26.9624C19.4976 26.5139 19.3853 26.049 19.0983 25.6907C18.8105 25.3315 18.3835 25.1251 17.9272 25.1251H4.13259Z" fill="#4C2F1B"/>
<path id="Vector_13" d="M17.7191 11.9854C17.7191 11.9854 18.2498 15.4364 16.0355 17.0329C13.3135 19.4277 5.51672 19.146 3.5791 20.6718C3.5791 20.6718 15.8046 20.9303 17.2347 17.3613C18.6647 13.7928 19.126 12.1495 17.7191 11.9854Z" fill="#F93D53"/>
<path id="Vector_14" d="M2.4944 24.2332C2.17176 24.2332 1.87542 24.0523 1.68157 23.7366C1.65884 23.7021 0.257316 21.2534 1.12809 18.6614C1.72524 16.8603 3.22302 15.4725 5.57953 14.5359C7.9307 13.6066 9.666 13.3748 11.0599 13.1884C13.4436 12.8763 14.7547 12.7044 17.3278 9.43706C17.5065 9.20575 17.7685 9.07422 18.0479 9.07422C18.0827 9.07422 18.1175 9.07603 18.1518 9.08057C18.4838 9.10098 18.7699 9.29283 18.9125 9.5822C18.9468 9.63798 18.9668 9.67427 18.9869 9.7101C19.0132 9.75681 19.0399 9.80307 19.0658 9.84344C19.7939 11.102 21.7467 14.4751 18.4312 18.7621C16.744 20.9368 5.96679 24.2337 2.60982 24.2337H2.4944V24.2332ZM17.662 12.0296C15.2266 14.6239 13.4169 14.8565 11.3224 15.1259C9.8398 15.3051 8.33712 15.5346 6.28185 16.3619C4.47837 17.0717 3.3527 18.0613 2.93781 19.3031C2.65661 20.1041 2.68692 21.0421 3.02961 22.0875L3.08933 22.2703L3.27783 22.2526C6.98417 21.9034 15.8897 18.8342 16.8906 17.5611C18.806 15.0656 18.4744 13.2569 18.0582 12.113L17.9258 11.7493L17.662 12.0296Z" fill="#4C2F1B"/>
<path id="Vector_15" d="M18.872 16.3047C18.872 16.3047 17.4879 19.4505 12.0672 20.554C7.70753 21.4226 1.17942 20.8592 1.15625 25.1321C1.15625 29.1937 17.7646 28.4893 19.8177 24.8269C22.7936 19.4977 18.872 16.3047 18.872 16.3047Z" fill="white"/>
<path id="Vector_16" d="M2.28711 25.1559C4.89363 22.7145 11.7675 24.2171 14.1896 23.3245C17.465 22.1035 18.8723 21.7044 19.149 18.042C19.149 18.042 23.3474 22.9957 17.9726 26.3293C14.8585 28.2079 4.15521 29.5459 2.28711 25.1559Z" fill="#FFF383"/>
<path id="Vector_17" d="M19.195 18.0195C19.195 18.0195 23.9241 27.9033 3.57861 26.0959C3.60179 26.0955 26.1616 30.2037 19.195 18.0195Z" fill="#F6E259"/>
<path id="Vector_18" d="M8.40038 28.7635C6.06481 28.7635 4.12318 28.5004 2.78449 28.0033C1.0893 27.411 0.195801 26.4186 0.195801 25.1324C0.195801 20.9996 4.82817 20.464 8.55012 20.0331L8.65751 20.0204C9.95387 19.8889 11.0029 19.7419 11.8594 19.5714C16.428 18.6461 18.2293 16.1371 18.3844 15.7371L18.3643 15.8146C18.5101 15.5556 18.748 15.3806 19.0346 15.3221C19.0863 15.3112 19.1393 15.3066 19.1919 15.3066C19.4116 15.3066 19.6429 15.396 19.8269 15.5525C21.5573 17.0655 23.9352 21.0799 20.5315 25.4272C18.8822 27.5951 13.051 28.7635 8.40038 28.7635ZM19.0947 18.0366C17.941 19.2348 15.818 20.8105 12.2533 21.5135C11.1762 21.7276 9.9454 21.8695 8.88345 21.9797C4.8099 22.4401 2.141 22.9082 2.141 25.1319C2.141 25.595 2.96319 25.9592 3.45339 26.1356C4.64368 26.561 6.31793 26.786 8.29566 26.786C12.4459 26.786 17.8964 25.7252 19.0823 24.2026C21.1723 21.4999 20.2168 19.1999 19.4615 18.0697L19.2979 17.8248L19.0947 18.0366Z" fill="#4C2F1B"/>
</g>
<defs>
<clipPath id="clip0_1_14583">
<rect width="22.0652" height="41.1883" fill="white" transform="translate(0.195801 0.112305)"/>
</clipPath>
</defs>
</svg>
