<svg width="46" height="30" viewBox="0 0 46 30" fill="none" xmlns="http://www.w3.org/2000/svg">
<path fill-rule="evenodd" clip-rule="evenodd" d="M0.000427173 14.9997C0.000427213 14.0792 0.746617 13.333 1.66709 13.333L41.6685 13.333C42.589 13.333 43.3352 14.0792 43.3352 14.9997C43.3352 15.9201 42.589 16.6663 41.6685 16.6663L1.66709 16.6663C0.746617 16.6663 0.000427133 15.9201 0.000427173 14.9997Z" fill="#605E5E"/>
<path fill-rule="evenodd" clip-rule="evenodd" d="M31.7117 0.386359C32.4188 -0.202926 33.4697 -0.107406 34.059 0.599709L44.5777 13.2217C45.4362 14.2518 45.4362 15.7482 44.5777 16.7783L34.059 29.4003C33.4697 30.1074 32.4188 30.2029 31.7117 29.6136C31.0046 29.0244 30.909 27.9734 31.4983 27.2663L41.7206 15L31.4983 2.7337C30.909 2.02658 31.0046 0.975644 31.7117 0.386359Z" fill="#605E5E"/>
</svg>
