<svg width="36" height="36" viewBox="0 0 36 36" fill="none" xmlns="http://www.w3.org/2000/svg">
<g id="Pizza" clip-path="url(#clip0_1_14645)">
<path id="Vector" d="M1.46143 20.9238V24.8014H32.1923C33.0562 24.8014 33.7153 20.8555 33.7153 20.8555L1.46143 20.9238Z" fill="#F2C05A"/>
<path id="Vector_2" d="M1.46107 25.7501C0.928481 25.7501 0.510742 25.3334 0.510742 24.8016V20.9237C0.510742 20.4009 0.937046 19.9756 1.46107 19.9756L33.7379 19.9072C34.0061 19.9072 34.2837 20.0342 34.4449 20.2308C34.6302 20.4526 34.7015 20.7221 34.6474 20.9917C33.8598 25.7501 32.6649 25.7501 32.2153 25.7501H1.46107ZM31.9264 23.876L31.9903 23.7482C32.1343 23.4608 32.3005 22.9508 32.5295 22.0944L32.6073 21.8035L2.43436 21.8726V23.876H2.66562H31.9264Z" fill="#4C2F1B"/>
<path id="Vector_3" d="M25.4414 1.73895C24.7823 1.3987 23.9639 1.48959 23.4185 1.9887L1.48389 20.9242H5.57562V31.832C5.57562 33.1247 6.62094 34.1676 7.9166 34.1676C9.21225 34.1676 10.2576 33.1247 10.2576 31.832V20.9242H12.6896V26.0719C12.6896 27.387 13.7805 28.4757 15.0991 28.4757C16.4174 28.4757 17.5086 27.3874 17.5086 26.0719V20.9242H20.9864C21.3275 22.2169 22.4868 23.1693 23.8732 23.1693C25.26 23.1693 26.4415 22.2169 26.76 20.9242L33.7607 20.9017C35.965 8.36101 28.4189 3.2359 25.4414 1.73895Z" fill="#FFDE8A"/>
<path id="Vector_4" d="M18.2132 9.99305C19.554 9.99305 20.6226 8.92725 20.6226 7.58916C20.6226 6.6593 20.0998 5.8883 19.3496 5.48047L15.9629 8.40561C16.3039 9.33547 17.1674 9.99305 18.2132 9.99305Z" fill="#FF5C5C"/>
<path id="Vector_5" d="M18.2132 10.4691C17.0083 10.4691 15.9174 9.69813 15.5082 8.56436C15.4401 8.38297 15.4853 8.17905 15.6445 8.0431L19.0312 5.11758C19.1675 4.98163 19.3948 4.95872 19.5537 5.04961C20.5083 5.54872 21.0767 6.52363 21.0767 7.56691C21.1 9.17649 19.8044 10.4691 18.2132 10.4691ZM16.531 8.54183C16.872 9.15435 17.5086 9.53966 18.2132 9.53966C19.2815 9.53966 20.1454 8.67816 20.1454 7.61197C20.1454 6.99983 19.8499 6.43275 19.3722 6.06997L16.531 8.54183Z" fill="#4C2F1B"/>
<path id="Vector_6" d="M26.1914 12.0568C25.9185 13.2135 26.6687 14.3928 27.8277 14.6421C28.6461 14.8235 29.4414 14.5287 29.9417 13.9391L28.0325 10.3789C27.146 10.4923 26.3958 11.127 26.1914 12.0568Z" fill="#FF5C5C"/>
<path id="Vector_7" d="M28.3052 15.1644C28.1234 15.1644 27.919 15.1418 27.7372 15.0964C26.3278 14.7791 25.4188 13.373 25.7369 11.9444C25.9868 10.8786 26.8733 10.0622 27.9871 9.92624C28.1689 9.90371 28.3737 9.99421 28.4644 10.1756L30.3736 13.7133C30.4647 13.8947 30.4418 14.0986 30.3055 14.2349C29.7827 14.8241 29.0554 15.1644 28.3052 15.1644ZM26.6459 12.1484C26.5548 12.602 26.6233 13.0553 26.8729 13.4181C27.1232 13.8034 27.4868 14.0757 27.9412 14.1665C28.4414 14.28 28.9639 14.144 29.3731 13.8263L27.8049 10.9012C27.2143 11.1051 26.7822 11.5584 26.6459 12.1484Z" fill="#4C2F1B"/>
<path id="Vector_8" d="M7.89352 35.0933C6.07852 35.0933 4.60145 33.6201 4.60145 31.8089V21.8496H1.46082C1.05592 21.8496 0.713713 21.6092 0.589131 21.2367C0.439633 20.8619 0.549421 20.4486 0.857761 20.195L22.7966 1.25594C23.3051 0.823247 23.9498 0.583984 24.6112 0.583984C25.0469 0.583984 25.467 0.683418 25.8602 0.879955C28.5239 2.21959 37.0328 7.63018 34.6689 20.9974C34.5969 21.446 34.1967 21.7816 33.7373 21.7816L27.3906 21.8049L27.3264 21.9292C26.6493 23.237 25.3171 24.0496 23.8497 24.0496C22.3828 24.0496 21.0505 23.2374 20.3731 21.9292L20.3081 21.8041H18.4359V26.0037C18.4359 27.8397 16.9389 29.3331 15.0986 29.3331C13.2583 29.3331 11.7618 27.8397 11.7618 26.0041V21.8045H11.2078V31.7638C11.1868 33.5987 9.69996 35.0933 7.89352 35.0933ZM24.5879 2.48216C24.3738 2.48216 24.1756 2.55751 24.0144 2.70045L3.99917 19.9759H5.55216C5.81573 19.9759 6.04543 20.0695 6.19843 20.2396C6.38569 20.4268 6.47991 20.6607 6.47991 20.9244V31.8322C6.47991 32.6098 7.11411 33.2425 7.89313 33.2425C8.68579 33.2425 9.30636 32.623 9.30636 31.8322V20.924C9.30636 20.4012 9.73266 19.9759 10.2567 19.9759H12.6888C12.9519 19.9759 13.1816 20.0695 13.335 20.2396C13.5223 20.4268 13.6165 20.6607 13.6165 20.9244V26.072C13.6165 26.8745 14.2709 27.5274 15.0753 27.5274C15.8796 27.5274 16.5341 26.8745 16.5341 26.072V20.9015C16.5341 20.3783 16.9604 19.953 17.4844 19.953H20.9622C21.3966 19.953 21.7634 20.2392 21.8747 20.6649C22.1071 21.5676 22.9193 22.1984 23.849 22.1984C24.7787 22.1984 25.5908 21.5676 25.8232 20.6645C25.9345 20.2396 26.3013 19.9534 26.7354 19.9534L32.9376 19.9301L32.9652 19.732C34.5136 8.67385 27.9111 4.05096 25.0006 2.57654C24.8596 2.51245 24.7238 2.48216 24.5879 2.48216Z" fill="#4C2F1B"/>
<path id="Vector_9" d="M33.7376 20.8552C36.0108 8.08807 28.1006 3.03093 25.2594 1.64779C24.691 1.37552 24.0089 1.4664 23.5316 1.87463L21.8042 3.37157C25.5775 6.18329 31.9191 11.3768 29.9869 20.8785L33.7376 20.8552Z" fill="#FFB07B"/>
<path id="Vector_10" d="M29.9876 21.8044C29.7115 21.8044 29.4378 21.6743 29.2564 21.4564C29.0754 21.24 29.0003 20.9479 29.0552 20.6741C30.7191 12.4669 26.0259 7.6984 21.2158 4.11646C20.9885 3.95915 20.8507 3.6927 20.8308 3.38003C20.8133 3.09804 20.932 2.82887 21.157 2.64204L22.888 1.14199C23.3501 0.743867 23.9344 0.524414 24.5332 0.524414C24.914 0.524414 25.2936 0.615691 25.6319 0.788146C28.3524 2.11186 37.0288 7.47662 34.624 21.0198C34.5519 21.4688 34.1517 21.8044 33.6927 21.8044H29.9876ZM24.5465 2.42259C24.3896 2.42259 24.2354 2.4793 24.1112 2.58261L23.2851 3.31477L23.5031 3.48529C25.6833 5.19353 32.318 10.392 31.1217 19.6472L31.0882 19.9074H32.9168L32.9444 19.7085C34.5216 8.43949 27.784 3.90866 24.8143 2.48357C24.7353 2.44434 24.6418 2.42259 24.5465 2.42259Z" fill="#4C2F1B"/>
<path id="Vector_11" d="M29.9874 20.8555C29.9874 20.8555 29.7826 23.3499 28.8735 24.8014H32.2147C32.2147 24.8014 33.3966 24.1663 33.7377 20.8555H29.9874Z" fill="#E2803D"/>
<path id="Vector_12" d="M28.8734 25.7497C28.5234 25.7497 28.2178 25.5667 28.0551 25.2603C27.8849 24.9577 27.8916 24.5961 28.0695 24.3114C28.7239 23.2479 28.9933 21.3598 29.0362 20.7819C29.0716 20.3037 29.4796 19.9297 29.9647 19.9297H33.715C33.9934 19.9297 34.2425 20.0392 34.3998 20.2307C34.598 20.4486 34.6801 20.698 34.6447 20.9609C34.2593 24.605 32.8982 25.4984 32.6292 25.6405C32.5202 25.7116 32.3656 25.7497 32.2146 25.7497H28.8734ZM30.8056 21.9894C30.7157 22.4384 30.6036 22.9974 30.4252 23.5769L30.3334 23.8756H31.8579L31.9272 23.7769C32.0837 23.5536 32.3796 23.037 32.5996 22.0865L32.665 21.8038H30.843L30.8056 21.9894Z" fill="#4C2F1B"/>
<path id="Vector_13" d="M11.9395 16.1163C11.9395 16.9805 12.6414 17.6808 13.5076 17.6808C14.3739 17.6808 15.0758 16.9805 15.0758 16.1163C15.0758 15.2521 14.3739 14.5518 13.5076 14.5518C12.6414 14.5518 11.9395 15.2521 11.9395 16.1163Z" fill="#FF5C5C"/>
<path id="Vector_14" d="M13.5078 18.157C12.3939 18.157 11.4619 17.2501 11.4619 16.1163C11.4619 14.9825 12.371 14.0752 13.5078 14.0752C14.6442 14.0752 15.5533 14.9821 15.5533 16.1163C15.5533 17.2497 14.6442 18.157 13.5078 18.157ZM13.5078 15.0276C12.8942 15.0276 12.4169 15.5267 12.4169 16.1159C12.4169 16.7055 12.9168 17.2042 13.5078 17.2042C14.0988 17.2042 14.5987 16.7051 14.5987 16.1159C14.5987 15.5263 14.1213 15.0276 13.5078 15.0276Z" fill="#4C2F1B"/>
<path id="Vector_15" d="M21.2361 17.6809H17.9402C17.7584 17.6809 17.5991 17.5221 17.5991 17.3407V16.5922C17.5991 16.4108 17.7584 16.252 17.9402 16.252H21.2361C21.4179 16.252 21.5772 16.4108 21.5772 16.5922V17.3407C21.5998 17.5221 21.4405 17.6809 21.2361 17.6809Z" fill="#3DE25C"/>
<path id="Vector_16" d="M20.8727 18.1573H18.327C17.6679 18.1573 17.145 17.6356 17.145 16.978C17.145 16.3205 17.6679 15.7988 18.327 15.7988H20.8727C21.5319 15.7988 22.0547 16.3205 22.0547 16.978C22.0547 17.6356 21.5319 18.1573 20.8727 18.1573ZM18.327 16.7283C18.1907 16.7283 18.077 16.8417 18.077 16.9777C18.077 17.114 18.1907 17.2274 18.327 17.2274H20.8727C21.009 17.2274 21.1227 17.114 21.1227 16.9777C21.1227 16.8417 21.009 16.7283 20.8727 16.7283H18.327Z" fill="#4C2F1B"/>
<path id="Vector_17" d="M23.509 14.2568L21.7586 12.3521C21.6905 12.2841 21.6905 12.1707 21.7586 12.1027L22.554 11.3772C22.6221 11.3092 22.7358 11.3092 22.8043 11.3772L24.5547 13.2819C24.6228 13.3499 24.6228 13.4633 24.5547 13.5313L23.7593 14.2568C23.7134 14.3252 23.5771 14.3252 23.509 14.2568Z" fill="#3DE25C"/>
<path id="Vector_18" d="M23.6687 14.7098H23.6236C23.3962 14.7098 23.1914 14.5964 23.0326 14.4375L21.5325 12.8276C21.3733 12.6687 21.3052 12.4423 21.3052 12.2154C21.3052 11.989 21.4189 11.7847 21.5781 11.6258L22.078 11.1721C22.2372 11.0133 22.4646 10.9453 22.6919 10.9453C22.9193 10.9453 23.1237 11.0587 23.2829 11.2176L24.783 12.8276C24.9422 12.9864 25.0103 13.2133 25.0103 13.4401C25.0103 13.6669 24.8966 13.8708 24.7374 14.0297L24.2375 14.4834C24.0779 14.6189 23.8731 14.7098 23.6687 14.7098ZM22.3049 12.238L23.6687 13.712L24.0323 13.3717L22.6686 11.8977L22.3049 12.238Z" fill="#4C2F1B"/>
</g>
<defs>
<clipPath id="clip0_1_14645">
<rect width="34.5688" height="34.5688" fill="white" transform="translate(0.510742 0.524414)"/>
</clipPath>
</defs>
</svg>
