<svg width="27" height="27" viewBox="0 0 27 27" fill="none" xmlns="http://www.w3.org/2000/svg">
<g id="Star">
<path id="Edit Color" d="M16.3597 21.687C18.0637 22.6197 19.5623 21.4893 19.2364 19.511L18.6512 15.9589L21.13 13.4433C22.5085 12.0443 21.939 10.2111 20.0312 9.92245L16.6056 9.40421L15.0812 6.18842C14.2273 4.38709 12.3733 4.36771 11.5179 6.17244L9.9859 9.40421L6.56034 9.92245C4.6552 10.2107 4.08101 12.0423 5.46154 13.4433L7.94029 15.9589L7.35514 19.511C7.0297 21.4865 8.52542 22.621 10.2318 21.687L13.2958 20.01L16.3597 21.687Z" fill="#6C5FBC"/>
<mask id="mask0_1_16731" style="mask-type:luminance" maskUnits="userSpaceOnUse" x="4" y="4" width="18" height="19">
<path id="Edit Color_2" d="M16.3597 21.687C18.0637 22.6197 19.5623 21.4893 19.2364 19.511L18.6512 15.9589L21.13 13.4433C22.5085 12.0443 21.939 10.2111 20.0312 9.92245L16.6056 9.40421L15.0812 6.18842C14.2273 4.38709 12.3733 4.36771 11.5179 6.17244L9.9859 9.40421L6.56034 9.92245C4.6552 10.2107 4.08101 12.0423 5.46154 13.4433L7.94029 15.9589L7.35514 19.511C7.0297 21.4865 8.52542 22.621 10.2318 21.687L13.2958 20.01L16.3597 21.687Z" fill="white"/>
</mask>
<g mask="url(#mask0_1_16731)">
</g>
</g>
</svg>
