<svg width="1024" height="158" viewBox="0 0 1024 158" fill="none" xmlns="http://www.w3.org/2000/svg">
<rect y="0.93335" width="1024" height="156.8" fill="#5C4EAE"/>
<mask id="mask0_1_11128" style="mask-type:alpha" maskUnits="userSpaceOnUse" x="0" y="0" width="1024" height="158">
<rect y="0.93335" width="1024" height="156.8" fill="#201F1F"/>
</mask>
<g mask="url(#mask0_1_11128)">
<path opacity="0.2" d="M1111.15 -56.5574C1094.45 -54.9987 1076.32 -54.7542 1060.05 -51.109C1044.13 -47.5421 1027.37 -41.0712 1013.36 -34.2368C987.549 -21.6423 974.33 -4.01075 962.337 17.0245C942.545 51.7387 935.379 87.7435 935.07 125.464C934.865 150.435 935.825 175.152 938.431 200.042C939.227 207.641 938.829 216.328 944.408 222.89" stroke="#A596FF" stroke-width="3.16355" stroke-linecap="round"/>
<path opacity="0.2" d="M1144.89 -38.6317C1127.69 -37.0259 1109.02 -36.7741 1092.26 -33.0189C1075.87 -29.3443 1058.6 -22.678 1044.17 -15.6373C1017.59 -2.66259 1003.97 15.5012 991.623 37.1715C971.238 72.9337 963.858 110.025 963.539 148.885C963.328 174.61 964.317 200.073 967.002 225.714C967.821 233.542 967.412 242.491 973.157 249.251" stroke="#A596FF" stroke-width="3.16355" stroke-linecap="round"/>
<path opacity="0.2" d="M262.882 411.866C266.701 389.49 272.272 368.444 270.845 344.318C269.826 327.087 265.558 310.128 257.353 293.946C242.056 263.775 222.058 235.014 198.285 212.096C173.992 188.678 150.144 163.197 122.712 145.214C97.2073 128.494 70.0046 114.681 45.1388 96.5106C3.47572 66.0663 -26.0123 17.4849 -51.0408 -29.1415C-64.2819 -53.8087 -77.4144 -78.6439 -90.091 -103.604C-98.046 -119.267 -104.729 -136.063 -114.51 -150.618" stroke="#A596FF" stroke-width="2.8563" stroke-linecap="round"/>
<path opacity="0.2" d="M293.93 403.849C298.051 379.676 304.063 356.939 302.517 330.873C301.412 312.256 296.799 293.933 287.934 276.448C271.404 243.849 249.799 212.77 224.116 188.005C197.872 162.7 172.108 135.165 142.474 115.731C114.923 97.6611 85.5377 82.731 58.6759 63.0949C13.6686 30.1943 -18.1922 -22.299 -45.2356 -72.6793C-59.5427 -99.3323 -73.7326 -126.167 -87.4301 -153.136C-96.0256 -170.06 -103.247 -188.208 -113.815 -203.936" stroke="#A596FF" stroke-width="2.8563" stroke-linecap="round"/>
</g>
</svg>
