<svg width="893" height="280" viewBox="0 0 893 280" fill="none" xmlns="http://www.w3.org/2000/svg">
<g opacity="0.25">
<path d="M147.318 140.952C143.434 144.719 138.145 147.009 132.31 146.966C126.513 146.923 121.224 144.59 117.282 140.781" stroke="#1C186C" stroke-width="4.63957" stroke-linecap="round" stroke-linejoin="round"/>
<path d="M118.22 149.619C122.416 152.401 127.236 153.985 132.349 154.028C138.341 154.07 143.903 151.973 148.528 148.335C150.402 146.858 150.929 143.969 149.719 141.743L148.45 139.41L143.2 129.908C143.2 129.908 139.473 123.145 135.96 116.768C134.262 113.686 130.32 113.643 128.641 116.682L116.151 139.239L114.921 141.465C113.711 143.669 114.258 146.601 116.17 148.099C116.814 148.656 117.517 149.148 118.22 149.619Z" stroke="#1C186C" stroke-width="4.63957" stroke-linecap="round" stroke-linejoin="round"/>
<path d="M125.344 136.521C124.875 136.307 124.348 136.307 123.88 136.521C123.626 136.628 123.431 136.778 123.236 136.971C122.885 137.377 122.67 137.912 122.67 138.469C122.67 139.047 122.865 139.56 123.236 139.967C123.607 140.374 124.075 140.588 124.602 140.588C125.129 140.588 125.597 140.374 125.968 139.967C126.339 139.56 126.534 139.025 126.534 138.469C126.534 137.912 126.319 137.377 125.968 136.971C125.793 136.757 125.578 136.607 125.344 136.521Z" fill="#201D67"/>
<path d="M133.033 138.619C132.565 138.405 132.038 138.405 131.569 138.619C131.335 138.726 131.12 138.875 130.925 139.068C130.574 139.475 130.359 140.01 130.359 140.566C130.359 141.144 130.555 141.658 130.925 142.064C131.296 142.471 131.765 142.685 132.291 142.685C132.818 142.685 133.287 142.471 133.658 142.064C134.028 141.658 134.224 141.144 134.224 140.566C134.224 140.01 134.009 139.475 133.658 139.068C133.482 138.875 133.287 138.726 133.033 138.619Z" fill="#201D67"/>
<path d="M141.387 136.949C140.665 136.157 139.377 136.157 138.655 136.949C138.304 137.356 138.089 137.891 138.089 138.447C138.089 139.025 138.284 139.538 138.655 139.945C139.026 140.352 139.494 140.566 140.021 140.566C140.275 140.566 140.528 140.502 140.743 140.395C140.977 140.288 141.192 140.138 141.387 139.945C141.758 139.538 141.953 139.025 141.953 138.447C141.934 137.912 141.719 137.356 141.387 136.949Z" fill="#201D67"/>
<path d="M137.933 129.201C137.835 128.923 137.698 128.709 137.523 128.495C136.801 127.703 135.513 127.703 134.791 128.495C134.615 128.709 134.478 128.923 134.381 129.201C134.283 129.458 134.225 129.737 134.225 129.993C134.225 130.272 134.283 130.55 134.381 130.785C134.478 131.042 134.615 131.277 134.791 131.491C135.161 131.898 135.63 132.112 136.157 132.112C136.41 132.112 136.664 132.048 136.879 131.941C137.113 131.834 137.328 131.684 137.523 131.491C137.894 131.085 138.089 130.571 138.089 129.993C138.089 129.737 138.03 129.458 137.933 129.201Z" fill="#201D67"/>
<path d="M130.224 129.201C130.126 128.945 129.99 128.709 129.814 128.495C129.072 127.703 127.784 127.703 127.082 128.495C126.906 128.709 126.769 128.923 126.672 129.201C126.574 129.458 126.516 129.737 126.516 129.993C126.516 130.571 126.711 131.085 127.082 131.491C127.277 131.684 127.491 131.834 127.726 131.941C127.96 132.048 128.214 132.112 128.467 132.112C128.994 132.112 129.463 131.898 129.833 131.491C130.009 131.277 130.146 131.042 130.243 130.785C130.36 130.528 130.399 130.25 130.399 129.993C130.38 129.737 130.341 129.458 130.224 129.201Z" fill="#201D67"/>
<path d="M130.945 123.06C131.316 123.467 131.784 123.681 132.311 123.681C132.565 123.681 132.818 123.616 133.033 123.509C133.267 123.402 133.482 123.253 133.677 123.06C133.853 122.846 133.989 122.611 134.087 122.354C134.185 122.097 134.243 121.819 134.243 121.562C134.243 120.984 134.028 120.47 133.677 120.064C133.131 119.486 132.291 119.272 131.569 119.614C131.316 119.721 131.12 119.871 130.925 120.064C130.574 120.47 130.359 121.005 130.359 121.562C130.359 121.84 130.418 122.118 130.516 122.354C130.633 122.611 130.769 122.846 130.945 123.06Z" fill="#201D67"/>
<path d="M612.854 46.3139C610.493 51.7927 605.419 55.5808 599.525 55.5808C591.387 55.5808 584.771 48.3257 584.771 39.4012C584.771 31.4613 590.001 24.8482 596.91 23.4785C597.144 28.2939 600.364 32.2531 604.579 33.1306C604.501 33.7084 604.443 34.3077 604.443 34.9069C604.443 40.5141 608.053 45.201 612.854 46.3139Z" stroke="#1C186C" stroke-width="4.63957" stroke-linecap="round" stroke-linejoin="round"/>
<path d="M593.416 30.5845C592.226 30.5845 591.25 31.6545 591.25 32.96C591.25 34.2655 592.226 35.3356 593.416 35.3356C594.607 35.3356 595.583 34.2655 595.583 32.96C595.583 31.6331 594.607 30.5845 593.416 30.5845Z" fill="#201D67"/>
<path d="M588.635 18.1929C587.445 18.1929 586.469 19.2629 586.469 20.5684C586.469 21.8739 587.445 22.944 588.635 22.944C589.826 22.944 590.801 21.8739 590.801 20.5684C590.782 19.2415 589.826 18.1929 588.635 18.1929Z" fill="#201D67"/>
<path d="M599.72 37.8813C598.529 37.8813 597.554 38.9514 597.554 40.2569C597.554 41.5624 598.529 42.6325 599.72 42.6325C600.91 42.6325 601.886 41.5624 601.886 40.2569C601.886 38.93 600.91 37.8813 599.72 37.8813Z" fill="#201D67"/>
<path d="M601.594 47.4058C601.594 47.4058 601.184 47.6626 600.658 48.005C600.15 48.326 599.721 48.6042 599.721 48.6042C599.721 48.6042 600.131 48.3474 600.658 48.005C601.165 47.6626 601.594 47.4058 601.594 47.4058Z" stroke="#1C186C" stroke-width="4.63957" stroke-linecap="round" stroke-linejoin="round"/>
<path d="M591.659 41.2637C591.659 41.2637 592.108 41.4777 592.654 41.7345C593.201 41.9913 593.65 42.2053 593.65 42.2053C593.65 42.2053 593.201 41.9913 592.654 41.7345C592.108 41.4777 591.659 41.2637 591.659 41.2637Z" stroke="#1C186C" stroke-width="4.63957" stroke-linecap="round" stroke-linejoin="round"/>
<path d="M581.979 27.8023C581.979 27.8023 582.331 27.4385 582.76 26.989C583.189 26.5396 583.541 26.1758 583.541 26.1758C583.541 26.1758 583.189 26.5396 582.76 26.989C582.331 27.4385 581.979 27.8023 581.979 27.8023Z" stroke="#1C186C" stroke-width="4.63957" stroke-linecap="round" stroke-linejoin="round"/>
<path d="M580.007 39.723C577.978 37.1976 576.748 33.9018 576.748 30.285C576.748 22.3878 582.583 15.9888 589.785 15.9888C595.601 15.9888 600.538 20.1621 602.217 25.9405" stroke="#1C186C" stroke-width="4.63957" stroke-linecap="round" stroke-linejoin="round"/>
<path d="M211.54 204.578C210.287 204.272 208.984 204.316 207.749 204.705C206.515 205.094 205.39 205.815 204.475 206.803C204.088 207.242 203.871 207.83 203.871 208.441C203.871 209.052 204.088 209.639 204.475 210.078L206.7 212.603" stroke="#1C186C" stroke-width="4.63957" stroke-linecap="round" stroke-linejoin="round"/>
<path d="M226.099 220.821C226.367 222.213 226.315 223.656 225.947 225.02C225.579 226.383 224.907 227.625 223.991 228.633C223.797 228.848 223.566 229.018 223.311 229.135C223.057 229.251 222.784 229.311 222.508 229.311C222.232 229.311 221.959 229.251 221.704 229.135C221.45 229.018 221.219 228.848 221.025 228.633L218.761 226.107" stroke="#1C186C" stroke-width="4.63957" stroke-linecap="round" stroke-linejoin="round"/>
<path d="M208.242 226.621C209.047 228.017 209.473 229.635 209.472 231.287C209.471 232.401 209.269 233.505 208.877 234.534C208.485 235.562 207.911 236.495 207.188 237.279C207.052 237.414 206.875 237.489 206.691 237.489C206.507 237.489 206.329 237.414 206.193 237.279C205.555 236.57 205.045 235.735 204.69 234.818C204.368 234.147 204.144 233.425 204.027 232.678C203.982 232.223 203.982 231.763 204.027 231.308C204.377 229.227 205.345 227.331 206.778 225.915C205.45 227.449 203.704 228.47 201.802 228.826C201.386 228.869 200.968 228.869 200.553 228.826C199.87 228.679 199.212 228.42 198.601 228.055C197.761 227.618 197.006 227.008 196.376 226.257C196.253 226.108 196.185 225.913 196.185 225.712C196.185 225.51 196.253 225.315 196.376 225.166C197.837 223.6 199.798 222.724 201.841 222.726C203.339 222.737 204.802 223.22 206.056 224.117" stroke="#1C186C" stroke-width="4.63957" stroke-linecap="round" stroke-linejoin="round"/>
<path d="M230.628 199.848C230.396 199.557 230.134 199.299 229.847 199.077C229.044 198.516 228.147 198.136 227.209 197.96C226.271 197.784 225.31 197.814 224.382 198.05C222.191 198.413 220.076 199.203 218.137 200.383C214.493 202.313 211.431 205.351 209.316 209.136C207.441 212.941 206.38 217.163 206.213 221.484C206.213 221.784 205.881 224.031 206.096 224.181L208.262 226.621C208.399 226.856 210.428 226.621 210.702 226.514C214.661 226.4 218.543 225.279 222.04 223.239C225.51 220.992 228.305 217.682 230.081 213.716C231.799 209.799 233.75 203.571 230.628 199.848Z" stroke="#1C186C" stroke-width="4.63957" stroke-linecap="round" stroke-linejoin="round"/>
<path d="M217.042 202.331C217.834 205.251 219.26 207.917 221.199 210.099C223.146 212.276 225.552 213.893 228.205 214.808" stroke="#1C186C" stroke-width="4.63957" stroke-linecap="round" stroke-linejoin="round"/>
<path d="M225.475 202.394C225.293 202.187 225.075 202.022 224.833 201.91C224.592 201.797 224.332 201.739 224.07 201.739C223.807 201.739 223.548 201.797 223.306 201.91C223.065 202.022 222.847 202.187 222.665 202.394C222.399 202.697 222.22 203.078 222.151 203.491C222.081 203.904 222.124 204.33 222.274 204.717C222.423 205.103 222.674 205.433 222.993 205.664C223.312 205.896 223.687 206.02 224.07 206.02C224.453 206.02 224.827 205.896 225.147 205.664C225.466 205.433 225.716 205.103 225.866 204.717C226.016 204.33 226.058 203.904 225.989 203.491C225.919 203.078 225.741 202.697 225.475 202.394Z" fill="#201D67"/>
<path d="M409.182 215.428L417.203 239.633L425.224 215.428" stroke="#1C186C" stroke-width="4.63957" stroke-linecap="round" stroke-linejoin="round"/>
<path d="M429.244 214.337C428.912 214.337 428.62 214.358 428.346 214.401C426.2 214.786 425.907 216.541 423.214 216.541C420.189 216.541 420.189 214.337 417.203 214.337C414.178 214.337 414.178 216.541 411.192 216.541C408.498 216.541 408.225 214.808 406.059 214.401C405.805 214.358 405.493 214.337 405.161 214.337" stroke="#1C186C" stroke-width="4.63957" stroke-linecap="round" stroke-linejoin="round"/>
<path d="M427.235 211.041C427.235 212.197 427.078 213.353 426.747 214.401C424.893 214.787 424.658 216.542 422.355 216.542C419.76 216.542 419.76 214.337 417.203 214.337C414.608 214.337 414.608 216.542 412.051 216.542C409.748 216.542 409.494 214.808 407.66 214.401C407.348 213.353 407.172 212.197 407.172 211.041C407.172 204.963 411.661 200.041 417.203 200.041C422.746 200.041 427.235 204.963 427.235 211.041Z" stroke="#1C186C" stroke-width="4.63957" stroke-linecap="round" stroke-linejoin="round"/>
<path d="M427.235 217.634H407.172" stroke="#1C186C" stroke-width="4.63957" stroke-linecap="round" stroke-linejoin="round"/>
<path d="M615.683 218.551H601.241V220.82H615.683V218.551Z" stroke="#1C186C" stroke-width="4.63957" stroke-linecap="round" stroke-linejoin="round"/>
<path d="M624.427 200.446C625.754 200.446 626.769 201.816 626.456 203.228C624.407 212.025 617.128 218.531 608.463 218.531C599.797 218.531 592.518 212.025 590.469 203.228C590.137 201.816 591.152 200.446 592.498 200.446H624.427V200.446Z" stroke="#1C186C" stroke-width="4.63957" stroke-linecap="round" stroke-linejoin="round"/>
<path d="M600.675 200.446C602.949 200.446 604.792 198.424 604.792 195.93C604.792 193.436 602.949 191.415 600.675 191.415C598.4 191.415 596.557 193.436 596.557 195.93C596.557 198.424 598.4 200.446 600.675 200.446Z" stroke="#1C186C" stroke-width="4.63957" stroke-linecap="round" stroke-linejoin="round"/>
<path d="M616.249 200.105C618.523 200.105 620.367 198.083 620.367 195.589C620.367 193.095 618.523 191.073 616.249 191.073C613.974 191.073 612.131 193.095 612.131 195.589C612.131 198.083 613.974 200.105 616.249 200.105Z" stroke="#1C186C" stroke-width="4.63957" stroke-linecap="round" stroke-linejoin="round"/>
<path d="M609.107 200.126C610.821 200.126 612.21 198.602 612.21 196.723C612.21 194.844 610.821 193.32 609.107 193.32C607.393 193.32 606.004 194.844 606.004 196.723C606.004 198.602 607.393 200.126 609.107 200.126Z" stroke="#1C186C" stroke-width="4.63957" stroke-linecap="round" stroke-linejoin="round"/>
<path d="M598.431 191.715L591.952 184.609" stroke="#1C186C" stroke-width="4.63957" stroke-linecap="round" stroke-linejoin="round"/>
<path d="M593.006 207.189H623.92" stroke="#1C186C" stroke-width="4.63957" stroke-linecap="round" stroke-linejoin="round"/>
<path d="M532.349 112.83H497.22C497.22 116.382 499.835 119.25 503.075 119.25H526.494C529.734 119.25 532.349 116.382 532.349 112.83Z" stroke="#1C186C" stroke-width="4.63957" stroke-linecap="round" stroke-linejoin="round"/>
<path d="M514.785 93.5684C506.159 93.5684 499.172 101.23 499.172 110.69V112.83H530.398V110.69C530.398 101.23 523.411 93.5684 514.785 93.5684Z" stroke="#1C186C" stroke-width="4.63957" stroke-linecap="round" stroke-linejoin="round"/>
<path d="M514.784 95.1736C516.671 95.1736 518.2 93.4968 518.2 91.4284C518.2 89.3599 516.671 87.6831 514.784 87.6831C512.898 87.6831 511.369 89.3599 511.369 91.4284C511.369 93.4968 512.898 95.1736 514.784 95.1736Z" fill="#201D67"/>
<path d="M392.257 82.9697C397.663 83.3336 403.069 85.9231 407.343 90.6743C411.578 95.3826 413.9 101.375 414.252 107.367" stroke="#1C186C" stroke-width="4.63957" stroke-linecap="round" stroke-linejoin="round"/>
<path d="M416.474 108.758L414.074 109.4L389.717 115.928C386.439 116.805 383.57 113.595 384.39 109.957L386.107 102.252L386.224 101.76L387.727 95.0613L387.863 94.4193L390.4 83.1835L391.025 80.4441C391.611 77.8117 393.933 76.121 396.314 76.549C402.169 77.5977 407.672 80.5511 412.063 85.4307C416.435 90.2674 419.07 96.3668 420.026 102.851C420.416 105.505 418.855 108.116 416.474 108.758Z" stroke="#1C186C" stroke-width="4.63957" stroke-linecap="round" stroke-linejoin="round"/>
<path d="M401.76 101.909C403.485 101.909 404.883 100.357 404.883 98.4421C404.883 96.5273 403.485 94.9751 401.76 94.9751C400.036 94.9751 398.638 96.5273 398.638 98.4421C398.638 100.357 400.036 101.909 401.76 101.909Z" stroke="#1C186C" stroke-width="4.63957" stroke-linecap="round" stroke-linejoin="round"/>
<path d="M390.205 100.605C389.132 101.803 387.59 102.188 386.224 101.718L388.175 92.9858C388.917 93.1785 389.619 93.5637 390.205 94.2057C391.805 95.982 391.805 98.8499 390.205 100.605Z" stroke="#1C186C" stroke-width="4.63957" stroke-linecap="round" stroke-linejoin="round"/>
<path d="M392.665 112.803C392.372 111.562 392.665 110.192 393.523 109.229C394.831 107.774 396.939 107.774 398.246 109.229C398.676 109.7 398.969 110.278 399.105 110.898" stroke="#1C186C" stroke-width="4.63957" stroke-linecap="round" stroke-linejoin="round"/>
<path d="M314.062 114.776L294.078 136.691C291.951 139.024 291.951 142.791 294.078 145.123C296.205 147.456 299.64 147.456 301.767 145.123L321.752 123.208C323.879 120.875 323.879 117.109 321.752 114.776C319.625 112.443 316.19 112.443 314.062 114.776Z" stroke="#1C186C" stroke-width="4.63957" stroke-linecap="round" stroke-linejoin="round"/>
<path d="M298.273 139.602C300.576 137.076 301.396 137.975 303.718 135.45C306.021 132.925 305.202 132.026 307.505 129.479C309.808 126.953 310.647 127.852 312.95 125.327C315.253 122.802 314.433 121.881 316.736 119.356" stroke="#1C186C" stroke-width="4.63957" stroke-linecap="round" stroke-linejoin="round"/>
<path d="M307.153 112.251L291.774 129.115C289.217 131.919 289.217 136.435 291.774 139.238L316.364 112.272C313.827 109.447 309.69 109.447 307.153 112.251Z" stroke="#1C186C" stroke-width="4.63957" stroke-linecap="round" stroke-linejoin="round"/>
<path d="M308.676 147.648L324.054 130.784C326.611 127.98 326.611 123.465 324.054 120.661L299.464 147.627C302.001 150.452 306.138 150.452 308.676 147.648Z" stroke="#1C186C" stroke-width="4.63957" stroke-linecap="round" stroke-linejoin="round"/>
<path d="M210.333 66.2172H190.816C187.343 66.2172 184.532 63.1354 184.532 59.3259V55.2168H216.617V59.3259C216.617 63.1354 213.807 66.2172 210.333 66.2172Z" stroke="#1C186C" stroke-width="4.63957" stroke-linecap="round" stroke-linejoin="round"/>
<path d="M215.622 48.6245H185.528C183.869 48.6245 182.522 50.1012 182.522 51.9203C182.522 53.7395 183.869 55.2162 185.528 55.2162H215.622C217.281 55.2162 218.627 53.7395 218.627 51.9203C218.627 50.1012 217.281 48.6245 215.622 48.6245Z" stroke="#1C186C" stroke-width="4.63957" stroke-linecap="round" stroke-linejoin="round"/>
<path d="M201.609 31.0327H199.54C191.246 31.0327 184.532 38.3948 184.532 47.4905V48.6247H216.617V47.4905C216.617 38.3948 209.903 31.0327 201.609 31.0327Z" stroke="#1C186C" stroke-width="4.63957" stroke-linecap="round" stroke-linejoin="round"/>
<path d="M184.317 55.7515C185.079 56.6503 185.625 57.8702 187.05 57.8702C188.474 57.8702 189.021 56.6503 189.782 55.7515" stroke="#1C186C" stroke-width="4.63957" stroke-linecap="round" stroke-linejoin="round"/>
<path d="M202.643 55.7515C203.404 56.6503 203.95 57.8702 205.375 57.8702C206.819 57.8702 207.365 56.6503 208.127 55.7515" stroke="#1C186C" stroke-width="4.63957" stroke-linecap="round" stroke-linejoin="round"/>
<path d="M214.566 57.8487C213.142 57.8487 212.595 56.6288 211.834 55.73" stroke="#1C186C" stroke-width="4.63957" stroke-linecap="round" stroke-linejoin="round"/>
<path d="M193.489 55.7515C194.25 56.6503 194.797 57.8702 196.222 57.8702C197.646 57.8702 198.193 56.6503 198.954 55.7515" stroke="#1C186C" stroke-width="4.63957" stroke-linecap="round" stroke-linejoin="round"/>
<path d="M704.556 96.0091C700.672 99.7758 695.383 102.066 689.548 102.023C683.752 101.98 678.463 99.6474 674.521 95.8379" stroke="#1C186C" stroke-width="4.63957" stroke-linecap="round" stroke-linejoin="round"/>
<path d="M675.457 104.676C679.653 107.458 684.473 109.042 689.587 109.085C695.578 109.128 701.14 107.03 705.766 103.392C707.639 101.915 708.166 99.026 706.956 96.8002L705.688 94.4675L700.438 84.9652C700.438 84.9652 696.71 78.2023 693.197 71.8247C691.499 68.7429 687.557 68.7001 685.879 71.7391L673.388 94.2963L672.159 96.522C670.949 98.7264 671.495 101.658 673.408 103.156C674.052 103.713 674.754 104.205 675.457 104.676Z" stroke="#1C186C" stroke-width="4.63957" stroke-linecap="round" stroke-linejoin="round"/>
<path d="M682.58 91.5785C682.112 91.3645 681.585 91.3645 681.116 91.5785C680.863 91.6855 680.667 91.8353 680.472 92.0279C680.121 92.4345 679.906 92.9696 679.906 93.526C679.906 94.1038 680.101 94.6175 680.472 95.0241C680.843 95.4307 681.311 95.6448 681.838 95.6448C682.365 95.6448 682.834 95.4307 683.204 95.0241C683.575 94.6175 683.77 94.0824 683.77 93.526C683.77 92.9696 683.556 92.4345 683.204 92.0279C683.029 91.8139 682.814 91.6641 682.58 91.5785Z" fill="#201D67"/>
<path d="M690.269 93.6776C689.801 93.4636 689.274 93.4636 688.806 93.6776C688.572 93.7846 688.357 93.9344 688.162 94.127C687.81 94.5336 687.596 95.0687 687.596 95.6251C687.596 96.203 687.791 96.7166 688.162 97.1232C688.532 97.5299 689.001 97.7439 689.528 97.7439C690.055 97.7439 690.523 97.5299 690.894 97.1232C691.265 96.7166 691.46 96.203 691.46 95.6251C691.46 95.0687 691.245 94.5336 690.894 94.127C690.718 93.9344 690.523 93.7846 690.269 93.6776Z" fill="#201D67"/>
<path d="M698.623 92.0065C697.901 91.2146 696.613 91.2146 695.891 92.0065C695.54 92.4131 695.325 92.9481 695.325 93.5046C695.325 94.0824 695.52 94.5961 695.891 95.0027C696.262 95.4093 696.73 95.6233 697.257 95.6233C697.511 95.6233 697.765 95.5591 697.979 95.4521C698.214 95.3451 698.428 95.1953 698.623 95.0027C698.994 94.5961 699.189 94.0824 699.189 93.5046C699.17 92.9696 698.955 92.4131 698.623 92.0065Z" fill="#201D67"/>
<path d="M695.168 84.2606C695.07 83.9823 694.934 83.7684 694.758 83.5543C694.036 82.7625 692.748 82.7625 692.026 83.5543C691.85 83.7684 691.714 83.9823 691.616 84.2606C691.519 84.5174 691.46 84.7956 691.46 85.0524C691.46 85.3307 691.519 85.6089 691.616 85.8443C691.714 86.1011 691.85 86.3365 692.026 86.5505C692.397 86.9572 692.865 87.1712 693.392 87.1712C693.646 87.1712 693.899 87.107 694.114 87C694.348 86.8929 694.563 86.7432 694.758 86.5505C695.129 86.1439 695.324 85.6303 695.324 85.0524C695.324 84.7956 695.266 84.5174 695.168 84.2606Z" fill="#201D67"/>
<path d="M687.458 84.2606C687.36 84.0037 687.224 83.7684 687.048 83.5543C686.307 82.7625 685.019 82.7625 684.316 83.5543C684.14 83.7684 684.004 83.9823 683.906 84.2606C683.809 84.5174 683.75 84.7956 683.75 85.0524C683.75 85.6303 683.945 86.1439 684.316 86.5505C684.511 86.7432 684.726 86.8929 684.96 87C685.194 87.107 685.448 87.1712 685.702 87.1712C686.229 87.1712 686.697 86.9572 687.068 86.5505C687.243 86.3365 687.38 86.1011 687.478 85.8443C687.595 85.5875 687.634 85.3093 687.634 85.0524C687.614 84.7956 687.575 84.5174 687.458 84.2606Z" fill="#201D67"/>
<path d="M688.181 78.1171C688.552 78.5237 689.02 78.7378 689.547 78.7378C689.801 78.7378 690.055 78.6736 690.269 78.5666C690.504 78.4596 690.718 78.3097 690.913 78.1171C691.089 77.9031 691.226 77.6677 691.323 77.4109C691.421 77.154 691.479 76.8758 691.479 76.619C691.479 76.0412 691.265 75.5276 690.913 75.1209C690.367 74.5431 689.528 74.3291 688.806 74.6715C688.552 74.7785 688.357 74.9283 688.162 75.1209C687.81 75.5276 687.596 76.0626 687.596 76.619C687.596 76.8972 687.654 77.1754 687.752 77.4109C687.869 77.6677 688.006 77.9031 688.181 78.1171Z" fill="#201D67"/>
<path d="M519.175 256.048C516.813 261.527 511.739 265.315 505.845 265.315C497.707 265.315 491.091 258.06 491.091 249.136C491.091 241.196 496.321 234.583 503.23 233.213C503.464 238.028 506.684 241.988 510.9 242.865C510.822 243.443 510.763 244.042 510.763 244.641C510.763 250.248 514.374 254.935 519.175 256.048Z" stroke="#1C186C" stroke-width="4.63957" stroke-linecap="round" stroke-linejoin="round"/>
<path d="M499.736 240.318C498.545 240.318 497.569 241.388 497.569 242.693C497.569 243.999 498.545 245.069 499.736 245.069C500.926 245.069 501.902 243.999 501.902 242.693C501.902 241.367 500.926 240.318 499.736 240.318Z" fill="#201D67"/>
<path d="M494.954 227.926C493.764 227.926 492.788 228.996 492.788 230.301C492.788 231.607 493.764 232.677 494.954 232.677C496.145 232.677 497.121 231.607 497.121 230.301C497.101 228.974 496.145 227.926 494.954 227.926Z" fill="#201D67"/>
<path d="M506.039 247.617C504.849 247.617 503.873 248.687 503.873 249.992C503.873 251.298 504.849 252.368 506.039 252.368C507.23 252.368 508.206 251.298 508.206 249.992C508.206 248.665 507.23 247.617 506.039 247.617Z" fill="#201D67"/>
<path d="M507.914 257.138C507.914 257.138 507.504 257.395 506.977 257.737C506.469 258.058 506.04 258.337 506.04 258.337C506.04 258.337 506.45 258.08 506.977 257.737C507.484 257.395 507.914 257.138 507.914 257.138Z" stroke="#1C186C" stroke-width="4.63957" stroke-linecap="round" stroke-linejoin="round"/>
<path d="M497.981 250.998C497.981 250.998 498.43 251.212 498.977 251.468C499.523 251.725 499.972 251.939 499.972 251.939C499.972 251.939 499.523 251.725 498.977 251.468C498.43 251.212 497.981 250.998 497.981 250.998Z" stroke="#1C186C" stroke-width="4.63957" stroke-linecap="round" stroke-linejoin="round"/>
<path d="M488.301 237.536C488.301 237.536 488.652 237.172 489.081 236.723C489.511 236.273 489.862 235.91 489.862 235.91C489.862 235.91 489.511 236.273 489.081 236.723C488.652 237.172 488.301 237.536 488.301 237.536Z" stroke="#1C186C" stroke-width="4.63957" stroke-linecap="round" stroke-linejoin="round"/>
<path d="M486.33 249.457C484.3 246.932 483.07 243.636 483.07 240.019C483.07 232.122 488.906 225.723 496.107 225.723C501.923 225.723 506.861 229.896 508.539 235.675" stroke="#1C186C" stroke-width="4.63957" stroke-linecap="round" stroke-linejoin="round"/>
<path d="M777.47 159.636C776.216 159.331 774.913 159.375 773.679 159.763C772.445 160.152 771.319 160.874 770.405 161.862C770.017 162.301 769.801 162.888 769.801 163.499C769.801 164.11 770.017 164.697 770.405 165.136L772.63 167.662" stroke="#1C186C" stroke-width="4.63957" stroke-linecap="round" stroke-linejoin="round"/>
<path d="M792.029 175.879C792.297 177.271 792.244 178.714 791.876 180.078C791.508 181.442 790.836 182.683 789.921 183.691C789.727 183.906 789.496 184.076 789.241 184.193C788.986 184.309 788.713 184.369 788.438 184.369C788.162 184.369 787.889 184.309 787.634 184.193C787.379 184.076 787.148 183.906 786.954 183.691L784.69 181.166" stroke="#1C186C" stroke-width="4.63957" stroke-linecap="round" stroke-linejoin="round"/>
<path d="M774.172 181.68C774.977 183.076 775.403 184.694 775.401 186.345C775.401 187.46 775.199 188.564 774.807 189.592C774.415 190.621 773.841 191.554 773.118 192.338C772.982 192.473 772.804 192.548 772.62 192.548C772.436 192.548 772.259 192.473 772.123 192.338C771.484 191.629 770.974 190.794 770.62 189.877C770.297 189.206 770.073 188.484 769.956 187.736C769.912 187.281 769.912 186.822 769.956 186.367C770.307 184.286 771.274 182.39 772.708 180.973C771.379 182.507 769.633 183.528 767.732 183.884C767.316 183.927 766.898 183.927 766.482 183.884C765.8 183.738 765.142 183.478 764.531 183.114C763.691 182.677 762.936 182.066 762.306 181.316C762.183 181.166 762.114 180.972 762.114 180.77C762.114 180.568 762.183 180.374 762.306 180.224C763.766 178.659 765.728 177.783 767.771 177.785C769.268 177.795 770.732 178.278 771.986 179.176" stroke="#1C186C" stroke-width="4.63957" stroke-linecap="round" stroke-linejoin="round"/>
<path d="M796.557 154.906C796.326 154.616 796.064 154.357 795.777 154.136C794.974 153.575 794.077 153.195 793.139 153.019C792.2 152.842 791.239 152.873 790.312 153.108C788.12 153.472 786.005 154.262 784.067 155.441C780.422 157.372 777.36 160.41 775.246 164.194C773.37 167.999 772.309 172.222 772.143 176.543C772.143 176.843 771.811 179.09 772.025 179.24L774.192 181.679C774.328 181.915 776.358 181.679 776.631 181.572C780.591 181.459 784.473 180.338 787.97 178.298C791.44 176.051 794.235 172.741 796.011 168.774C797.728 164.858 799.68 158.63 796.557 154.906Z" stroke="#1C186C" stroke-width="4.63957" stroke-linecap="round" stroke-linejoin="round"/>
<path d="M782.975 157.389C783.766 160.31 785.193 162.976 787.132 165.158C789.079 167.335 791.485 168.952 794.138 169.866" stroke="#1C186C" stroke-width="4.63957" stroke-linecap="round" stroke-linejoin="round"/>
<path d="M791.405 157.453C791.223 157.246 791.004 157.081 790.763 156.968C790.521 156.856 790.262 156.798 789.999 156.798C789.737 156.798 789.477 156.856 789.236 156.968C788.995 157.081 788.776 157.246 788.594 157.453C788.329 157.755 788.15 158.137 788.08 158.549C788.011 158.962 788.054 159.389 788.203 159.775C788.353 160.162 788.603 160.491 788.923 160.723C789.242 160.955 789.617 161.078 789.999 161.078C790.382 161.078 790.757 160.955 791.076 160.723C791.396 160.491 791.646 160.162 791.796 159.775C791.945 159.389 791.988 158.962 791.919 158.549C791.849 158.137 791.67 157.755 791.405 157.453Z" fill="#201D67"/>
<path d="M294.235 245.048C299.641 245.412 305.047 248.002 309.321 252.753C313.556 257.461 315.879 263.454 316.23 269.446" stroke="#1C186C" stroke-width="4.63957" stroke-linecap="round" stroke-linejoin="round"/>
<path d="M318.453 270.837L316.052 271.479L291.696 278.006C288.417 278.884 285.548 275.674 286.368 272.035L288.085 264.331L288.203 263.839L289.705 257.14L289.842 256.498L292.379 245.262L293.004 242.523C293.589 239.89 295.911 238.2 298.292 238.628C304.147 239.676 309.651 242.63 314.042 247.509C318.414 252.346 321.048 258.445 322.005 264.93C322.395 267.584 320.834 270.195 318.453 270.837Z" stroke="#1C186C" stroke-width="4.63957" stroke-linecap="round" stroke-linejoin="round"/>
<path d="M303.738 263.99C305.462 263.99 306.86 262.438 306.86 260.523C306.86 258.608 305.462 257.056 303.738 257.056C302.013 257.056 300.615 258.608 300.615 260.523C300.615 262.438 302.013 263.99 303.738 263.99Z" stroke="#1C186C" stroke-width="4.63957" stroke-linecap="round" stroke-linejoin="round"/>
<path d="M292.184 262.683C291.111 263.881 289.569 264.267 288.203 263.796L290.155 255.064C290.896 255.257 291.599 255.642 292.184 256.284C293.785 258.06 293.785 260.928 292.184 262.683Z" stroke="#1C186C" stroke-width="4.63957" stroke-linecap="round" stroke-linejoin="round"/>
<path d="M294.643 274.883C294.351 273.642 294.643 272.272 295.502 271.309C296.81 269.853 298.917 269.853 300.225 271.309C300.654 271.78 300.947 272.357 301.084 272.978" stroke="#1C186C" stroke-width="4.63957" stroke-linecap="round" stroke-linejoin="round"/>
<path d="M857.729 231.676C863.134 232.04 868.54 234.63 872.815 239.381C877.05 244.089 879.372 250.082 879.723 256.074" stroke="#1C186C" stroke-width="4.63957" stroke-linecap="round" stroke-linejoin="round"/>
<path d="M881.948 257.466L879.547 258.108L855.191 264.635C851.912 265.513 849.043 262.303 849.863 258.664L851.581 250.96L851.698 250.468L853.2 243.769L853.337 243.127L855.874 231.891L856.499 229.152C857.084 226.519 859.407 224.829 861.788 225.257C867.642 226.305 873.146 229.259 877.537 234.138C881.909 238.975 884.543 245.074 885.5 251.559C885.89 254.213 884.329 256.824 881.948 257.466Z" stroke="#1C186C" stroke-width="4.63957" stroke-linecap="round" stroke-linejoin="round"/>
<path d="M867.234 250.617C868.958 250.617 870.357 249.064 870.357 247.15C870.357 245.235 868.958 243.683 867.234 243.683C865.509 243.683 864.111 245.235 864.111 247.15C864.111 249.064 865.509 250.617 867.234 250.617Z" stroke="#1C186C" stroke-width="4.63957" stroke-linecap="round" stroke-linejoin="round"/>
<path d="M855.68 249.312C854.606 250.511 853.064 250.896 851.698 250.425L853.65 241.693C854.391 241.886 855.094 242.271 855.68 242.913C857.28 244.69 857.28 247.557 855.68 249.312Z" stroke="#1C186C" stroke-width="4.63957" stroke-linecap="round" stroke-linejoin="round"/>
<path d="M858.138 261.511C857.846 260.269 858.138 258.9 858.997 257.937C860.305 256.481 862.412 256.481 863.72 257.937C864.149 258.408 864.442 258.985 864.579 259.606" stroke="#1C186C" stroke-width="4.63957" stroke-linecap="round" stroke-linejoin="round"/>
<path d="M875.644 69.8345L855.66 91.7497C853.533 94.0824 853.533 97.8491 855.66 100.182C857.787 102.515 861.222 102.515 863.349 100.182L883.334 78.2667C885.461 75.934 885.461 72.1673 883.334 69.8345C881.207 67.5018 877.772 67.5018 875.644 69.8345Z" stroke="#1C186C" stroke-width="4.63957" stroke-linecap="round" stroke-linejoin="round"/>
<path d="M859.855 94.6594C862.158 92.134 862.978 93.0329 865.3 90.5075C867.603 87.9821 866.784 87.0833 869.087 84.5365C871.39 82.0111 872.229 82.91 874.532 80.3846C876.835 77.8592 876.015 76.939 878.318 74.4136" stroke="#1C186C" stroke-width="4.63957" stroke-linecap="round" stroke-linejoin="round"/>
<path d="M868.736 67.3085L853.357 84.1729C850.8 86.9765 850.8 91.4922 853.357 94.2958L877.947 67.3299C875.41 64.5049 871.273 64.5049 868.736 67.3085Z" stroke="#1C186C" stroke-width="4.63957" stroke-linecap="round" stroke-linejoin="round"/>
<path d="M870.259 102.706L885.637 85.8412C888.194 83.0376 888.194 78.5219 885.637 75.7183L861.047 102.684C863.584 105.509 867.721 105.509 870.259 102.706Z" stroke="#1C186C" stroke-width="4.63957" stroke-linecap="round" stroke-linejoin="round"/>
<path d="M116.655 275.953H97.1387C93.6648 275.953 90.8545 272.871 90.8545 269.061V264.952H122.939V269.061C122.939 272.871 120.129 275.953 116.655 275.953Z" stroke="#1C186C" stroke-width="4.63957" stroke-linecap="round" stroke-linejoin="round"/>
<path d="M121.943 258.36H91.8492C90.1904 258.36 88.8438 259.837 88.8438 261.656C88.8438 263.475 90.1904 264.952 91.8492 264.952H121.943C123.602 264.952 124.949 263.475 124.949 261.656C124.949 259.837 123.602 258.36 121.943 258.36Z" stroke="#1C186C" stroke-width="4.63957" stroke-linecap="round" stroke-linejoin="round"/>
<path d="M107.931 240.768H105.862C97.5681 240.768 90.8545 248.13 90.8545 257.226V258.36H122.939V257.226C122.939 248.13 116.226 240.768 107.931 240.768Z" stroke="#1C186C" stroke-width="4.63957" stroke-linecap="round" stroke-linejoin="round"/>
<path d="M90.6387 265.487C91.3998 266.386 91.9463 267.606 93.3709 267.606C94.7956 267.606 95.3421 266.386 96.1032 265.487" stroke="#1C186C" stroke-width="4.63957" stroke-linecap="round" stroke-linejoin="round"/>
<path d="M108.965 265.487C109.726 266.386 110.272 267.606 111.697 267.606C113.141 267.606 113.688 266.386 114.449 265.487" stroke="#1C186C" stroke-width="4.63957" stroke-linecap="round" stroke-linejoin="round"/>
<path d="M120.889 267.584C119.465 267.584 118.918 266.364 118.157 265.465" stroke="#1C186C" stroke-width="4.63957" stroke-linecap="round" stroke-linejoin="round"/>
<path d="M99.8115 265.487C100.573 266.386 101.119 267.606 102.544 267.606C103.968 267.606 104.515 266.386 105.276 265.487" stroke="#1C186C" stroke-width="4.63957" stroke-linecap="round" stroke-linejoin="round"/>
<path d="M787.125 21.2748H767.608C764.135 21.2748 761.324 18.193 761.324 14.3835V10.2744H793.409V14.3835C793.409 18.193 790.598 21.2748 787.125 21.2748Z" stroke="#1C186C" stroke-width="4.63957" stroke-linecap="round" stroke-linejoin="round"/>
<path d="M792.414 3.68164H762.32C760.661 3.68164 759.314 5.15834 759.314 6.97747C759.314 8.7966 760.661 10.2733 762.32 10.2733H792.414C794.073 10.2733 795.419 8.7966 795.419 6.97747C795.419 5.15834 794.073 3.68164 792.414 3.68164Z" stroke="#1C186C" stroke-width="4.63957" stroke-linecap="round" stroke-linejoin="round"/>
<path d="M778.401 -13.9102H776.332C768.038 -13.9102 761.324 -6.54804 761.324 2.5476V3.68188H793.409V2.5476C793.409 -6.54804 786.695 -13.9102 778.401 -13.9102Z" stroke="#1C186C" stroke-width="4.63957" stroke-linecap="round" stroke-linejoin="round"/>
<path d="M761.111 10.8081C761.872 11.707 762.419 12.9269 763.844 12.9269C765.268 12.9269 765.815 11.707 766.576 10.8081" stroke="#1C186C" stroke-width="4.63957" stroke-linecap="round" stroke-linejoin="round"/>
<path d="M779.437 10.8081C780.198 11.707 780.744 12.9269 782.169 12.9269C783.613 12.9269 784.159 11.707 784.921 10.8081" stroke="#1C186C" stroke-width="4.63957" stroke-linecap="round" stroke-linejoin="round"/>
<path d="M791.361 12.9063C789.936 12.9063 789.39 11.6865 788.629 10.7876" stroke="#1C186C" stroke-width="4.63957" stroke-linecap="round" stroke-linejoin="round"/>
<path d="M770.284 10.8081C771.045 11.707 771.592 12.9269 773.016 12.9269C774.441 12.9269 774.988 11.707 775.749 10.8081" stroke="#1C186C" stroke-width="4.63957" stroke-linecap="round" stroke-linejoin="round"/>
<path d="M714.919 288.792H695.402C691.928 288.792 689.118 285.71 689.118 281.901V277.792H721.203V281.901C721.203 285.71 718.392 288.792 714.919 288.792Z" stroke="#1C186C" stroke-width="4.63957" stroke-linecap="round" stroke-linejoin="round"/>
<path d="M720.208 271.2H690.114C688.455 271.2 687.108 272.677 687.108 274.496C687.108 276.315 688.455 277.792 690.114 277.792H720.208C721.867 277.792 723.213 276.315 723.213 274.496C723.213 272.677 721.867 271.2 720.208 271.2Z" stroke="#1C186C" stroke-width="4.63957" stroke-linecap="round" stroke-linejoin="round"/>
<path d="M706.195 253.607H704.126C695.832 253.607 689.118 260.97 689.118 270.065V271.199H721.203V270.065C721.203 260.97 714.489 253.607 706.195 253.607Z" stroke="#1C186C" stroke-width="4.63957" stroke-linecap="round" stroke-linejoin="round"/>
<path d="M688.903 278.326C689.664 279.225 690.211 280.445 691.636 280.445C693.06 280.445 693.607 279.225 694.368 278.326" stroke="#1C186C" stroke-width="4.63957" stroke-linecap="round" stroke-linejoin="round"/>
<path d="M707.229 278.326C707.99 279.225 708.536 280.445 709.961 280.445C711.405 280.445 711.951 279.225 712.713 278.326" stroke="#1C186C" stroke-width="4.63957" stroke-linecap="round" stroke-linejoin="round"/>
<path d="M719.153 280.423C717.728 280.423 717.182 279.204 716.421 278.305" stroke="#1C186C" stroke-width="4.63957" stroke-linecap="round" stroke-linejoin="round"/>
<path d="M698.075 278.326C698.836 279.225 699.383 280.445 700.807 280.445C702.232 280.445 702.779 279.225 703.54 278.326" stroke="#1C186C" stroke-width="4.63957" stroke-linecap="round" stroke-linejoin="round"/>
</g>
</svg>
